<svg xmlns="http://www.w3.org/2000/svg" viewBox="0 0 800 500" width="800" height="500">
  <defs>
    <linearGradient id="bg19" x1="0%" y1="0%" x2="100%" y2="100%">
      <stop offset="0%" style="stop-color:#0d1117"/>
      <stop offset="100%" style="stop-color:#1a1a2e"/>
    </linearGradient>
  </defs>
  <rect width="800" height="500" fill="url(#bg19)"/>
  <!-- Canvas area -->
  <rect x="200" y="120" width="420" height="280" rx="4" fill="#161b22" stroke="#30363d" stroke-width="2"/>
  <!-- Brush strokes on canvas -->
  <path d="M230 200 Q310 160 390 200 Q470 240 550 190" fill="none" stroke="#f78166" stroke-width="8" stroke-linecap="round"/>
  <path d="M230 260 Q320 300 420 250 Q500 210 580 270" fill="none" stroke="#79c0ff" stroke-width="6" stroke-linecap="round"/>
  <ellipse cx="340" cy="340" rx="60" ry="40" fill="#3fb95066"/>
  <ellipse cx="460" cy="320" rx="50" ry="35" fill="#e3b34166"/>
  <circle cx="500" cy="180" r="25" fill="#f7816644"/>
  <!-- Toolbar -->
  <rect x="80" y="120" width="100" height="280" rx="4" fill="#161b22" stroke="#30363d" stroke-width="1.5"/>
  <circle cx="130" cy="160" r="12" fill="#f85149"/>
  <circle cx="130" cy="200" r="12" fill="#3fb950"/>
  <circle cx="130" cy="240" r="12" fill="#79c0ff"/>
  <circle cx="130" cy="280" r="12" fill="#e3b341"/>
  <circle cx="130" cy="320" r="12" fill="#bc8cff"/>
  <rect x="110" y="355" width="40" height="8" rx="2" fill="#58a6ff"/>
  <rect x="115" y="370" width="30" height="8" rx="2" fill="#30363d"/>
  <!-- Title -->
  <text x="400" y="65" text-anchor="middle" fill="#ffffff" font-family="monospace" font-size="20" font-weight="bold">2D Digital Art Pad</text>
  <text x="400" y="92" text-anchor="middle" fill="#8b949e" font-family="monospace" font-size="13">Java · GUI · Object-Oriented Design</text>
  <!-- Colour palette bottom -->
  <rect x="640" y="120" width="80" height="280" rx="4" fill="#161b22" stroke="#30363d" stroke-width="1.5"/>
  <text x="680" y="150" text-anchor="middle" fill="#8b949e" font-family="monospace" font-size="10">Brush</text>
  <rect x="655" y="160" width="50" height="6" rx="3" fill="#f85149"/>
  <rect x="655" y="175" width="50" height="6" rx="3" fill="#3fb950"/>
  <rect x="655" y="190" width="50" height="6" rx="3" fill="#79c0ff"/>
  <rect x="655" y="205" width="50" height="6" rx="3" fill="#e3b341"/>
</svg>
