<svg xmlns="http://www.w3.org/2000/svg" viewBox="0 0 800 500" width="800" height="500">
  <defs>
    <linearGradient id="bg32" x1="0%" y1="0%" x2="100%" y2="100%">
      <stop offset="0%" style="stop-color:#0d1117"/>
      <stop offset="100%" style="stop-color:#1a2332"/>
    </linearGradient>
  </defs>
  <rect width="800" height="500" fill="url(#bg32)"/>

  <!-- Title -->
  <text x="400" y="38" text-anchor="middle" font-family="monospace" font-size="18" font-weight="bold" fill="#58a6ff">ATS Resume Checker</text>
  <text x="400" y="60" text-anchor="middle" font-family="monospace" font-size="12" fill="#8b949e">Python · FastAPI · NLP · Resume Optimization</text>

  <!-- ===== LEFT: Resume Document ===== -->
  <rect x="70" y="80" width="220" height="310" rx="4" fill="#f0f6fc" stroke="#30363d" stroke-width="1.5"/>

  <!-- Document header red stripe -->
  <rect x="70" y="80" width="220" height="32" rx="4" fill="#2d333b"/>
  <rect x="70" y="100" width="220" height="12" fill="#2d333b"/>
  <text x="180" y="100" text-anchor="middle" font-family="monospace" font-size="10" fill="#c9d1d9">resume.pdf</text>

  <!-- Resume content lines -->
  <rect x="84" y="122" width="100" height="8" rx="2" fill="#1f6feb"/>
  <rect x="84" y="136" width="140" height="5" rx="2" fill="#8b949e"/>
  <rect x="84" y="146" width="120" height="5" rx="2" fill="#8b949e"/>

  <line x1="84" y1="160" x2="276" y2="160" stroke="#d0d7de" stroke-width="1"/>
  <rect x="84" y="168" width="70" height="6" rx="2" fill="#0969da"/>
  <rect x="84" y="180" width="176" height="4" rx="2" fill="#c9d1d9" opacity="0.6"/>
  <rect x="84" y="189" width="160" height="4" rx="2" fill="#c9d1d9" opacity="0.6"/>
  <rect x="84" y="198" width="170" height="4" rx="2" fill="#c9d1d9" opacity="0.6"/>
  <rect x="84" y="207" width="145" height="4" rx="2" fill="#c9d1d9" opacity="0.6"/>

  <line x1="84" y1="219" x2="276" y2="219" stroke="#d0d7de" stroke-width="1"/>
  <rect x="84" y="227" width="65" height="6" rx="2" fill="#0969da"/>
  <rect x="84" y="239" width="176" height="4" rx="2" fill="#c9d1d9" opacity="0.6"/>
  <rect x="84" y="248" width="155" height="4" rx="2" fill="#c9d1d9" opacity="0.6"/>
  <rect x="84" y="257" width="168" height="4" rx="2" fill="#c9d1d9" opacity="0.6"/>

  <line x1="84" y1="269" x2="276" y2="269" stroke="#d0d7de" stroke-width="1"/>
  <rect x="84" y="277" width="55" height="6" rx="2" fill="#0969da"/>
  <!-- Keywords highlighted -->
  <rect x="84" y="289" width="40" height="13" rx="2" fill="#ddf4ff"/>
  <text x="104" y="299" text-anchor="middle" font-family="monospace" font-size="8" fill="#0969da">Python</text>
  <rect x="130" y="289" width="32" height="13" rx="2" fill="#ddf4ff"/>
  <text x="146" y="299" text-anchor="middle" font-family="monospace" font-size="8" fill="#0969da">SQL</text>
  <rect x="168" y="289" width="50" height="13" rx="2" fill="#ddf4ff"/>
  <text x="193" y="299" text-anchor="middle" font-family="monospace" font-size="8" fill="#0969da">FastAPI</text>
  <rect x="84" y="308" width="52" height="13" rx="2" fill="#fff8c5"/>
  <text x="110" y="318" text-anchor="middle" font-family="monospace" font-size="8" fill="#9a6700">Docker</text>
  <rect x="142" y="308" width="38" height="13" rx="2" fill="#fff8c5"/>
  <text x="161" y="318" text-anchor="middle" font-family="monospace" font-size="8" fill="#9a6700">AWS</text>
  <rect x="186" y="308" width="38" height="13" rx="2" fill="#ffd8d3"/>
  <text x="205" y="318" text-anchor="middle" font-family="monospace" font-size="8" fill="#cf222e">REST</text>

  <rect x="84" y="330" width="176" height="4" rx="2" fill="#c9d1d9" opacity="0.6"/>
  <rect x="84" y="339" width="150" height="4" rx="2" fill="#c9d1d9" opacity="0.6"/>
  <rect x="84" y="348" width="162" height="4" rx="2" fill="#c9d1d9" opacity="0.6"/>
  <rect x="84" y="357" width="140" height="4" rx="2" fill="#c9d1d9" opacity="0.6"/>
  <rect x="84" y="366" width="155" height="4" rx="2" fill="#c9d1d9" opacity="0.6"/>
  <rect x="84" y="375" width="130" height="4" rx="2" fill="#c9d1d9" opacity="0.6"/>

  <!-- Upload label -->
  <text x="180" y="408" text-anchor="middle" font-family="monospace" font-size="10" fill="#8b949e">Upload Resume</text>
  <rect x="120" y="413" width="120" height="22" rx="4" fill="#238636" stroke="#2ea043" stroke-width="1"/>
  <text x="180" y="428" text-anchor="middle" font-family="monospace" font-size="10" fill="#ffffff">Analyze →</text>

  <!-- Arrow -->
  <line x1="295" y1="240" x2="370" y2="240" stroke="#58a6ff" stroke-width="2.5"/>
  <polygon points="364,234 378,240 364,246" fill="#58a6ff"/>
  <text x="332" y="232" text-anchor="middle" font-family="monospace" font-size="9" fill="#58a6ff">FastAPI</text>
  <text x="332" y="257" text-anchor="middle" font-family="monospace" font-size="9" fill="#8b949e">POST /analyze</text>

  <!-- ===== RIGHT: Score Panel ===== -->
  <rect x="385" y="80" width="385" height="310" rx="6" fill="#161b22" stroke="#58a6ff" stroke-width="1.5"/>
  <text x="577" y="102" text-anchor="middle" font-family="monospace" font-size="12" font-weight="bold" fill="#58a6ff">ATS Analysis Results</text>
  <line x1="400" y1="110" x2="755" y2="110" stroke="#30363d" stroke-width="1"/>

  <!-- Score circle centered at x=480, y=205, r=45 -->
  <circle cx="480" cy="205" r="50" fill="#0d1117" stroke="#30363d" stroke-width="2"/>
  <!-- Arc fill for score 78% -->
  <circle cx="480" cy="205" r="42" fill="none" stroke="#21262d" stroke-width="10"/>
  <circle cx="480" cy="205" r="42" fill="none" stroke="#3fb950" stroke-width="10"
    stroke-dasharray="206 265" stroke-dashoffset="66" transform="rotate(-90 480 205)"/>
  <text x="480" y="200" text-anchor="middle" font-family="monospace" font-size="20" font-weight="bold" fill="#3fb950">78%</text>
  <text x="480" y="217" text-anchor="middle" font-family="monospace" font-size="9" fill="#8b949e">ATS Score</text>

  <!-- Category bars on right of score circle -->
  <!-- Keywords -->
  <text x="555" y="135" font-family="monospace" font-size="9" fill="#8b949e">Keywords</text>
  <rect x="555" y="140" width="170" height="10" rx="3" fill="#21262d"/>
  <rect x="555" y="140" width="144" height="10" rx="3" fill="#3fb950"/>
  <text x="732" y="149" font-family="monospace" font-size="8" fill="#3fb950">85%</text>

  <!-- Formatting -->
  <text x="555" y="163" font-family="monospace" font-size="9" fill="#8b949e">Formatting</text>
  <rect x="555" y="168" width="170" height="10" rx="3" fill="#21262d"/>
  <rect x="555" y="168" width="136" height="10" rx="3" fill="#58a6ff"/>
  <text x="732" y="177" font-family="monospace" font-size="8" fill="#58a6ff">80%</text>

  <!-- Skills Match -->
  <text x="555" y="191" font-family="monospace" font-size="9" fill="#8b949e">Skills Match</text>
  <rect x="555" y="196" width="170" height="10" rx="3" fill="#21262d"/>
  <rect x="555" y="196" width="119" height="10" rx="3" fill="#e3b341"/>
  <text x="732" y="205" font-family="monospace" font-size="8" fill="#e3b341">70%</text>

  <!-- Experience -->
  <text x="555" y="219" font-family="monospace" font-size="9" fill="#8b949e">Experience</text>
  <rect x="555" y="224" width="170" height="10" rx="3" fill="#21262d"/>
  <rect x="555" y="224" width="127" height="10" rx="3" fill="#3fb950"/>
  <text x="732" y="233" font-family="monospace" font-size="8" fill="#3fb950">75%</text>

  <!-- Readability -->
  <text x="555" y="247" font-family="monospace" font-size="9" fill="#8b949e">Readability</text>
  <rect x="555" y="252" width="170" height="10" rx="3" fill="#21262d"/>
  <rect x="555" y="252" width="102" height="10" rx="3" fill="#f78166"/>
  <text x="732" y="261" font-family="monospace" font-size="8" fill="#f78166">60%</text>

  <!-- Missing Keywords section -->
  <text x="400" y="282" font-family="monospace" font-size="10" fill="#f85149">Missing Keywords:</text>
  <rect x="510" y="270" width="52" height="16" rx="3" fill="#3d1f1f" stroke="#f85149" stroke-width="1"/>
  <text x="536" y="281" text-anchor="middle" font-family="monospace" font-size="8" fill="#f85149">Kubernetes</text>
  <rect x="568" y="270" width="44" height="16" rx="3" fill="#3d1f1f" stroke="#f85149" stroke-width="1"/>
  <text x="590" y="281" text-anchor="middle" font-family="monospace" font-size="8" fill="#f85149">CI/CD</text>
  <rect x="618" y="270" width="44" height="16" rx="3" fill="#3d1f1f" stroke="#f85149" stroke-width="1"/>
  <text x="640" y="281" text-anchor="middle" font-family="monospace" font-size="8" fill="#f85149">Spark</text>

  <!-- Suggestions -->
  <text x="400" y="306" font-family="monospace" font-size="10" fill="#e3b341">Suggestions:</text>
  <text x="400" y="320" font-family="monospace" font-size="9" fill="#c9d1d9">• Add quantified achievements (e.g. "improved X by 30%")</text>
  <text x="400" y="334" font-family="monospace" font-size="9" fill="#c9d1d9">• Include more action verbs (built, designed, optimized)</text>
  <text x="400" y="348" font-family="monospace" font-size="9" fill="#c9d1d9">• Add missing keywords: Kubernetes, CI/CD, Spark</text>
  <text x="400" y="362" font-family="monospace" font-size="9" fill="#c9d1d9">• Improve readability — keep bullet points concise</text>
  <text x="400" y="376" font-family="monospace" font-size="9" fill="#3fb950">• Strong match for Backend / Data Engineer roles</text>

  <!-- Footer status -->
  <rect x="70" y="405" width="700" height="60" rx="6" fill="#161b22" stroke="#30363d" stroke-width="1"/>
  <text x="400" y="425" text-anchor="middle" font-family="monospace" font-size="10" font-weight="bold" fill="#c9d1d9">How It Works</text>
  <text x="400" y="443" text-anchor="middle" font-family="monospace" font-size="9" fill="#8b949e">Upload PDF → FastAPI extracts text → spaCy NLP parses keywords → score vs job description → actionable feedback</text>
  <text x="400" y="458" text-anchor="middle" font-family="monospace" font-size="9" fill="#8b949e">REST API · Swagger UI · JSON Response · Deployed on Render</text>
</svg>
