<svg xmlns="http://www.w3.org/2000/svg" viewBox="0 0 800 500" width="800" height="500">
  <defs>
    <linearGradient id="bg25" x1="0%" y1="0%" x2="100%" y2="100%">
      <stop offset="0%" style="stop-color:#0d1117"/>
      <stop offset="100%" style="stop-color:#1a0d2e"/>
    </linearGradient>
  </defs>
  <rect width="800" height="500" fill="url(#bg25)"/>

  <!-- Title -->
  <text x="400" y="38" text-anchor="middle" font-family="monospace" font-size="18" font-weight="bold" fill="#bc8cff">CORDIC-Based Signal Processor</text>

  <!-- ===== LEFT: Noisy Input Waveform ===== -->
  <rect x="20" y="75" width="155" height="170" rx="6" fill="#161b22" stroke="#58a6ff" stroke-width="1.5"/>
  <text x="97" y="95" text-anchor="middle" font-family="monospace" font-size="10" fill="#58a6ff">Input Signal</text>
  <!-- Axes -->
  <line x1="35" y1="200" x2="165" y2="200" stroke="#30363d" stroke-width="1"/>
  <line x1="35" y1="105" x2="35" y2="205" stroke="#30363d" stroke-width="1"/>
  <!-- Noisy sine wave -->
  <polyline points="35,160 42,148 46,140 50,152 55,145 60,133 65,142 70,138 75,148 80,155 85,148 90,140 95,152 100,160 105,150 110,158 115,163 120,155 125,148 130,155 135,165 140,160 145,168 150,158 155,162 160,170 165,165" fill="none" stroke="#58a6ff" stroke-width="1.8"/>
  <text x="97" y="218" text-anchor="middle" font-family="monospace" font-size="9" fill="#8b949e">x(t) + noise</text>

  <!-- Arrow input → CORDIC -->
  <line x1="175" y1="160" x2="210" y2="160" stroke="#bc8cff" stroke-width="2"/>
  <polygon points="210,155 220,160 210,165" fill="#bc8cff"/>

  <!-- ===== CENTER: CORDIC Pipeline ===== -->
  <rect x="220" y="75" width="360" height="340" rx="8" fill="#161b22" stroke="#bc8cff" stroke-width="2"/>
  <text x="400" y="97" text-anchor="middle" font-family="monospace" font-size="12" font-weight="bold" fill="#bc8cff">CORDIC Core</text>
  <text x="400" y="113" text-anchor="middle" font-family="monospace" font-size="9" fill="#8b949e">Iterative Shift-Add Architecture</text>

  <!-- Stage boxes -->
  <!-- Stage 0 -->
  <rect x="232" y="120" width="336" height="38" rx="4" fill="#21262d" stroke="#bc8cff" stroke-width="1"/>
  <text x="310" y="136" font-family="monospace" font-size="10" fill="#bc8cff">Stage 0</text>
  <text x="310" y="150" font-family="monospace" font-size="9" fill="#8b949e">&gt;&gt; shift(0)   +/- add</text>
  <text x="500" y="143" font-family="monospace" font-size="9" fill="#e3b341">d₀·2⁰</text>

  <!-- Arrow -->
  <line x1="400" y1="158" x2="400" y2="168" stroke="#30363d" stroke-width="1.5" stroke-dasharray="3,2"/>

  <!-- Stage 1 -->
  <rect x="232" y="168" width="336" height="38" rx="4" fill="#21262d" stroke="#bc8cff" stroke-width="1"/>
  <text x="310" y="184" font-family="monospace" font-size="10" fill="#bc8cff">Stage 1</text>
  <text x="310" y="198" font-family="monospace" font-size="9" fill="#8b949e">&gt;&gt; shift(1)   +/- add</text>
  <text x="500" y="191" font-family="monospace" font-size="9" fill="#e3b341">d₁·2⁻¹</text>

  <!-- Arrow -->
  <line x1="400" y1="206" x2="400" y2="216" stroke="#30363d" stroke-width="1.5" stroke-dasharray="3,2"/>

  <!-- Stage 2 -->
  <rect x="232" y="216" width="336" height="38" rx="4" fill="#21262d" stroke="#bc8cff" stroke-width="1"/>
  <text x="310" y="232" font-family="monospace" font-size="10" fill="#bc8cff">Stage 2</text>
  <text x="310" y="246" font-family="monospace" font-size="9" fill="#8b949e">&gt;&gt; shift(2)   +/- add</text>
  <text x="500" y="239" font-family="monospace" font-size="9" fill="#e3b341">d₂·2⁻²</text>

  <!-- Arrow -->
  <line x1="400" y1="254" x2="400" y2="264" stroke="#30363d" stroke-width="1.5" stroke-dasharray="3,2"/>

  <!-- Stage 3 -->
  <rect x="232" y="264" width="336" height="38" rx="4" fill="#21262d" stroke="#bc8cff" stroke-width="1"/>
  <text x="310" y="280" font-family="monospace" font-size="10" fill="#bc8cff">Stage 3</text>
  <text x="310" y="294" font-family="monospace" font-size="9" fill="#8b949e">&gt;&gt; shift(3)   +/- add</text>
  <text x="500" y="287" font-family="monospace" font-size="9" fill="#e3b341">d₃·2⁻³</text>

  <!-- Dots -->
  <text x="400" y="318" text-anchor="middle" font-family="monospace" font-size="14" fill="#8b949e">. . .</text>

  <!-- Stage N -->
  <rect x="232" y="326" width="336" height="38" rx="4" fill="#2d1f42" stroke="#bc8cff" stroke-width="1.5"/>
  <text x="310" y="342" font-family="monospace" font-size="10" fill="#bc8cff">Stage N</text>
  <text x="310" y="356" font-family="monospace" font-size="9" fill="#8b949e">&gt;&gt; shift(N)   +/- add</text>
  <text x="500" y="349" font-family="monospace" font-size="9" fill="#e3b341">dₙ·2⁻ᴺ</text>

  <!-- CORDIC equation at bottom of center box -->
  <rect x="232" y="374" width="336" height="30" rx="3" fill="#0d1117"/>
  <text x="400" y="393" text-anchor="middle" font-family="monospace" font-size="10" fill="#f78166">x_{i+1} = x_i - d_i · 2^(-i) · y_i</text>

  <!-- Arrow CORDIC → output -->
  <line x1="580" y1="245" x2="610" y2="245" stroke="#3fb950" stroke-width="2"/>
  <polygon points="610,240 620,245 610,250" fill="#3fb950"/>

  <!-- ===== RIGHT: Output waveforms ===== -->
  <rect x="620" y="75" width="160" height="340" rx="6" fill="#161b22" stroke="#3fb950" stroke-width="1.5"/>
  <text x="700" y="95" text-anchor="middle" font-family="monospace" font-size="10" fill="#3fb950">Output</text>

  <!-- sin output -->
  <text x="700" y="115" text-anchor="middle" font-family="monospace" font-size="9" fill="#3fb950">sin(θ)</text>
  <line x1="632" y1="145" x2="772" y2="145" stroke="#30363d" stroke-width="1"/>
  <line x1="632" y1="115" x2="632" y2="148" stroke="#30363d" stroke-width="1"/>
  <polyline points="632,130 645,120 658,130 671,145 684,130 697,118 710,130 723,145 736,130 749,120 762,130 772,140" fill="none" stroke="#3fb950" stroke-width="2"/>

  <!-- cos output -->
  <text x="700" y="175" text-anchor="middle" font-family="monospace" font-size="9" fill="#58a6ff">cos(θ)</text>
  <line x1="632" y1="205" x2="772" y2="205" stroke="#30363d" stroke-width="1"/>
  <line x1="632" y1="175" x2="632" y2="208" stroke="#30363d" stroke-width="1"/>
  <polyline points="632,183 645,195 658,205 671,196 684,183 697,195 710,205 723,196 736,183 749,195 762,205 772,196" fill="none" stroke="#58a6ff" stroke-width="2"/>

  <!-- magnitude output -->
  <text x="700" y="230" text-anchor="middle" font-family="monospace" font-size="9" fill="#e3b341">|mag|</text>
  <line x1="632" y1="260" x2="772" y2="260" stroke="#30363d" stroke-width="1"/>
  <line x1="632" y1="230" x2="632" y2="263" stroke="#30363d" stroke-width="1"/>
  <!-- flat magnitude line -->
  <line x1="632" y1="248" x2="772" y2="248" stroke="#e3b341" stroke-width="2"/>

  <!-- angle output -->
  <text x="700" y="285" text-anchor="middle" font-family="monospace" font-size="9" fill="#f78166">angle θ</text>
  <line x1="632" y1="315" x2="772" y2="315" stroke="#30363d" stroke-width="1"/>
  <line x1="632" y1="285" x2="632" y2="318" stroke="#30363d" stroke-width="1"/>
  <!-- sawtooth-like angle -->
  <polyline points="632,315 655,290 655,315 678,292 678,315 701,290 701,315 724,292 724,315 747,290 747,315 772,292" fill="none" stroke="#f78166" stroke-width="1.5"/>

  <!-- Fixed-point label -->
  <rect x="630" y="335" width="140" height="50" rx="3" fill="#0d1117"/>
  <text x="700" y="352" text-anchor="middle" font-family="monospace" font-size="9" fill="#8b949e">16-bit Fixed-Point</text>
  <text x="700" y="366" text-anchor="middle" font-family="monospace" font-size="9" fill="#8b949e">Q1.15 Format</text>
  <text x="700" y="380" text-anchor="middle" font-family="monospace" font-size="9" fill="#bc8cff">±0.00003 error</text>

  <!-- Bottom footer -->
  <text x="400" y="460" text-anchor="middle" font-family="monospace" font-size="11" fill="#8b949e">16 Iterations · Pipelined · FPGA Synthesizable</text>
</svg>
