<svg xmlns="http://www.w3.org/2000/svg" viewBox="0 0 800 500" width="800" height="500">
  <defs><linearGradient id="bg" x1="0%" y1="0%" x2="100%" y2="100%"><stop offset="0%" style="stop-color:#0d1117"/><stop offset="100%" style="stop-color:#1a2332"/></linearGradient></defs>
  <rect width="800" height="500" fill="url(#bg)"/>
  <!-- File tree -->
  <text x="80" y="150" fill="#58a6ff" font-family="monospace" font-size="13">/</text>
  <line x1="90" y1="155" x2="90" y2="360" stroke="#30363d" stroke-width="1.5"/>
  <line x1="90" y1="185" x2="115" y2="185" stroke="#30363d" stroke-width="1.5"/>
  <text x="120" y="190" fill="#8b949e" font-family="monospace" font-size="12">home/</text>
  <line x1="90" y1="225" x2="115" y2="225" stroke="#30363d" stroke-width="1.5"/>
  <text x="120" y="230" fill="#8b949e" font-family="monospace" font-size="12">etc/</text>
  <line x1="90" y1="265" x2="115" y2="265" stroke="#30363d" stroke-width="1.5"/>
  <text x="120" y="270" fill="#e3b341" font-family="monospace" font-size="12">tmp/</text>
  <line x1="90" y1="305" x2="115" y2="305" stroke="#30363d" stroke-width="1.5"/>
  <text x="120" y="310" fill="#8b949e" font-family="monospace" font-size="12">var/</text>
  <line x1="90" y1="355" x2="115" y2="355" stroke="#30363d" stroke-width="1.5"/>
  <text x="120" y="360" fill="#f85149" font-family="monospace" font-size="12">../../../etc/passwd</text>
  <!-- Blocked arrow -->
  <line x1="380" y1="355" x2="480" y2="355" stroke="#f85149" stroke-width="2" stroke-dasharray="6,3"/>
  <line x1="440" y1="340" x2="440" y2="370" stroke="#f85149" stroke-width="3"/>
  <text x="490" y="359" fill="#f85149" font-family="monospace" font-size="11">BLOCKED</text>
  <!-- Shield -->
  <path d="M560 160 L620 160 L640 200 L590 270 L540 200 Z" fill="#161b22" stroke="#3fb950" stroke-width="2.5"/>
  <text x="590" y="220" text-anchor="middle" fill="#3fb950" font-family="monospace" font-size="22">✓</text>
  <text x="590" y="295" text-anchor="middle" fill="#3fb950" font-family="monospace" font-size="11">Secure</text>
  <text x="590" y="310" text-anchor="middle" fill="#3fb950" font-family="monospace" font-size="11">Resolution</text>
  <!-- Code snippet -->
  <rect x="400" y="180" width="280" height="130" rx="4" fill="#161b22" stroke="#30363d" stroke-width="1"/>
  <text x="415" y="205" fill="#79c0ff" font-family="monospace" font-size="10">resolve_path(</text>
  <text x="415" y="220" fill="#8b949e" font-family="monospace" font-size="10">  root, user_input</text>
  <text x="415" y="235" fill="#79c0ff" font-family="monospace" font-size="10">):</text>
  <text x="415" y="255" fill="#3fb950" font-family="monospace" font-size="10">  canonicalize →</text>
  <text x="415" y="270" fill="#3fb950" font-family="monospace" font-size="10">  prefix check →</text>
  <text x="415" y="285" fill="#3fb950" font-family="monospace" font-size="10">  safe path ✓</text>
  <text x="400" y="65" text-anchor="middle" fill="#ffffff" font-family="monospace" font-size="19" font-weight="bold">Secure Pathname Resolution</text>
</svg>
