<svg xmlns="http://www.w3.org/2000/svg" viewBox="0 0 800 500" width="800" height="500">
  <defs><linearGradient id="bg" x1="0%" y1="0%" x2="100%" y2="100%"><stop offset="0%" style="stop-color:#0d1117"/><stop offset="100%" style="stop-color:#0d1f0d"/></linearGradient></defs>
  <rect width="800" height="500" fill="url(#bg)"/>
  <!-- Oscilloscope screen -->
  <rect x="100" y="120" width="500" height="280" rx="8" fill="#001a00" stroke="#3fb950" stroke-width="2.5"/>
  <!-- Grid lines -->
  <line x1="100" y1="200" x2="600" y2="200" stroke="#3fb95022" stroke-width="1"/>
  <line x1="100" y1="260" x2="600" y2="260" stroke="#3fb95022" stroke-width="1"/>
  <line x1="100" y1="320" x2="600" y2="320" stroke="#3fb95022" stroke-width="1"/>
  <line x1="200" y1="120" x2="200" y2="400" stroke="#3fb95022" stroke-width="1"/>
  <line x1="300" y1="120" x2="300" y2="400" stroke="#3fb95022" stroke-width="1"/>
  <line x1="400" y1="120" x2="400" y2="400" stroke="#3fb95022" stroke-width="1"/>
  <line x1="500" y1="120" x2="500" y2="400" stroke="#3fb95022" stroke-width="1"/>
  <!-- Sine wave -->
  <path d="M110 260 Q135 160 160 260 Q185 360 210 260 Q235 160 260 260 Q285 360 310 260 Q335 160 360 260 Q385 360 410 260 Q435 160 460 260 Q485 360 510 260 Q535 160 560 260 Q575 310 590 260" fill="none" stroke="#3fb950" stroke-width="2.5"/>
  <!-- Labels -->
  <text x="115" y="415" fill="#3fb950" font-family="monospace" font-size="10">0ms</text>
  <text x="195" y="415" fill="#3fb950" font-family="monospace" font-size="10">2ms</text>
  <text x="295" y="415" fill="#3fb950" font-family="monospace" font-size="10">4ms</text>
  <text x="395" y="415" fill="#3fb950" font-family="monospace" font-size="10">6ms</text>
  <text x="495" y="415" fill="#3fb950" font-family="monospace" font-size="10">8ms</text>
  <!-- HCS12 chip -->
  <rect x="630" y="170" width="120" height="160" rx="4" fill="#161b22" stroke="#e3b341" stroke-width="2"/>
  <text x="690" y="240" text-anchor="middle" fill="#e3b341" font-family="monospace" font-size="11">HCS12</text>
  <text x="690" y="258" text-anchor="middle" fill="#e3b341" font-family="monospace" font-size="11">MCU</text>
  <!-- Pins -->
  <line x1="610" y1="190" x2="630" y2="190" stroke="#e3b341" stroke-width="1.5"/>
  <line x1="610" y1="210" x2="630" y2="210" stroke="#e3b341" stroke-width="1.5"/>
  <line x1="610" y1="230" x2="630" y2="230" stroke="#e3b341" stroke-width="1.5"/>
  <line x1="750" y1="190" x2="770" y2="190" stroke="#e3b341" stroke-width="1.5"/>
  <line x1="750" y1="210" x2="770" y2="210" stroke="#e3b341" stroke-width="1.5"/>
  <line x1="750" y1="230" x2="770" y2="230" stroke="#e3b341" stroke-width="1.5"/>
  <text x="400" y="65" text-anchor="middle" fill="#ffffff" font-family="monospace" font-size="18" font-weight="bold">Analog Signal Acquisition — HCS12</text>
</svg>
