<svg xmlns="http://www.w3.org/2000/svg" viewBox="0 0 800 500" width="800" height="500">
  <defs>
    <linearGradient id="bg" x1="0%" y1="0%" x2="100%" y2="100%"><stop offset="0%" style="stop-color:#000000"/><stop offset="100%" style="stop-color:#000d1a"/></linearGradient>
    <radialGradient id="glow" cx="50%" cy="50%" r="50%"><stop offset="0%" style="stop-color:#79c0ff33"/><stop offset="100%" style="stop-color:#00000000"/></radialGradient>
  </defs>
  <rect width="800" height="500" fill="url(#bg)"/>
  <ellipse cx="400" cy="260" rx="200" ry="200" fill="url(#glow)"/>
  <!-- 3D particle sphere simulation -->
  <circle cx="400" cy="260" r="3" fill="#79c0ff" opacity="0.9"/>
  <circle cx="460" cy="220" r="2.5" fill="#79c0ff" opacity="0.85"/>
  <circle cx="340" cy="230" r="2" fill="#79c0ff" opacity="0.75"/>
  <circle cx="490" cy="280" r="3" fill="#bc8cff" opacity="0.9"/>
  <circle cx="320" cy="300" r="2.5" fill="#bc8cff" opacity="0.8"/>
  <circle cx="430" cy="180" r="2" fill="#79c0ff" opacity="0.7"/>
  <circle cx="370" cy="340" r="3" fill="#f78166" opacity="0.85"/>
  <circle cx="500" cy="240" r="2" fill="#79c0ff" opacity="0.6"/>
  <circle cx="300" cy="260" r="2.5" fill="#bc8cff" opacity="0.7"/>
  <circle cx="450" cy="320" r="3" fill="#f78166" opacity="0.8"/>
  <circle cx="360" cy="200" r="2" fill="#79c0ff" opacity="0.65"/>
  <circle cx="520" cy="310" r="2.5" fill="#bc8cff" opacity="0.75"/>
  <circle cx="280" cy="230" r="2" fill="#79c0ff" opacity="0.6"/>
  <circle cx="480" cy="350" r="3" fill="#f78166" opacity="0.85"/>
  <circle cx="350" cy="160" r="2" fill="#79c0ff" opacity="0.5"/>
  <circle cx="540" cy="260" r="2.5" fill="#bc8cff" opacity="0.7"/>
  <circle cx="260" cy="300" r="2" fill="#79c0ff" opacity="0.55"/>
  <circle cx="410" cy="370" r="3" fill="#f78166" opacity="0.75"/>
  <circle cx="330" cy="150" r="2.5" fill="#79c0ff" opacity="0.6"/>
  <circle cx="550" cy="200" r="2" fill="#bc8cff" opacity="0.65"/>
  <!-- Motion lines from center -->
  <line x1="400" y1="260" x2="460" y2="220" stroke="#79c0ff" stroke-width="0.8" opacity="0.3"/>
  <line x1="400" y1="260" x2="490" y2="280" stroke="#bc8cff" stroke-width="0.8" opacity="0.3"/>
  <line x1="400" y1="260" x2="370" y2="340" stroke="#f78166" stroke-width="0.8" opacity="0.3"/>
  <line x1="400" y1="260" x2="320" y2="300" stroke="#bc8cff" stroke-width="0.8" opacity="0.3"/>
  <line x1="400" y1="260" x2="450" y2="320" stroke="#f78166" stroke-width="0.8" opacity="0.3"/>
  <line x1="400" y1="260" x2="340" y2="230" stroke="#79c0ff" stroke-width="0.8" opacity="0.3"/>
  <!-- Waveform at bottom -->
  <path d="M80 420 Q100 395 120 420 Q140 445 160 420 Q180 395 200 420 Q220 445 240 420 Q260 395 280 420 Q300 445 320 420 Q340 395 360 420 Q380 445 400 420 Q420 395 440 420 Q460 445 480 420 Q500 395 520 420 Q540 445 560 420 Q580 395 600 420 Q620 445 640 420 Q660 395 680 420 Q700 445 720 420" fill="none" stroke="#79c0ff" stroke-width="1.8" opacity="0.7"/>
  <!-- Frequency bars -->
  <rect x="80" y="395" width="8" height="25" fill="#79c0ff" opacity="0.5"/>
  <rect x="95" y="385" width="8" height="35" fill="#79c0ff" opacity="0.6"/>
  <rect x="110" y="378" width="8" height="42" fill="#bc8cff" opacity="0.7"/>
  <rect x="125" y="390" width="8" height="30" fill="#79c0ff" opacity="0.5"/>
  <rect x="140" y="375" width="8" height="45" fill="#f78166" opacity="0.8"/>
  <rect x="155" y="385" width="8" height="35" fill="#bc8cff" opacity="0.65"/>
  <rect x="170" y="393" width="8" height="27" fill="#79c0ff" opacity="0.5"/>
  <!-- WebGL / Audio labels -->
  <rect x="590" y="130" width="175" height="120" rx="6" fill="#0d1117cc" stroke="#79c0ff" stroke-width="1.5"/>
  <text x="677" y="153" text-anchor="middle" fill="#79c0ff" font-family="monospace" font-size="11">Audio Input</text>
  <text x="677" y="172" text-anchor="middle" fill="#8b949e" font-family="monospace" font-size="9">Amplitude: 0.73</text>
  <text x="677" y="187" text-anchor="middle" fill="#8b949e" font-family="monospace" font-size="9">Frequency: 440Hz</text>
  <line x1="595" y1="197" x2="760" y2="197" stroke="#30363d" stroke-width="1"/>
  <text x="677" y="213" text-anchor="middle" fill="#bc8cff" font-family="monospace" font-size="10">WebGL Render</text>
  <text x="677" y="229" text-anchor="middle" fill="#8b949e" font-family="monospace" font-size="9">Particles: 2,048</text>
  <text x="677" y="244" text-anchor="middle" fill="#8b949e" font-family="monospace" font-size="9">60fps · 3D Camera</text>
  <text x="400" y="65" text-anchor="middle" fill="#ffffff" font-family="monospace" font-size="18" font-weight="bold">Real-Time Audio 3D Visualizer</text>
  <text x="400" y="92" text-anchor="middle" fill="#8b949e" font-family="monospace" font-size="13">JavaScript · WebGL · Web Audio API</text>
</svg>
