<svg xmlns="http://www.w3.org/2000/svg" viewBox="0 0 800 500" width="800" height="500">
  <defs>
    <radialGradient id="glow34" cx="50%" cy="54%" r="38%">
      <stop offset="0%" style="stop-color:#79c0ff44"/>
      <stop offset="60%" style="stop-color:#bc8cff22"/>
      <stop offset="100%" style="stop-color:#00000000"/>
    </radialGradient>
    <radialGradient id="centerGlow" cx="50%" cy="50%" r="50%">
      <stop offset="0%" style="stop-color:#ffffff66"/>
      <stop offset="40%" style="stop-color:#58a6ff44"/>
      <stop offset="100%" style="stop-color:#00000000"/>
    </radialGradient>
  </defs>
  <rect width="800" height="500" fill="#000000"/>

  <!-- Background glow -->
  <ellipse cx="400" cy="270" rx="280" ry="200" fill="url(#glow34)"/>

  <!-- Title -->
  <text x="400" y="38" text-anchor="middle" font-family="monospace" font-size="18" font-weight="bold" fill="#79c0ff">Real-Time Audio 3D Visualizer</text>
  <text x="400" y="60" text-anchor="middle" font-family="monospace" font-size="12" fill="#8b949e">JavaScript · WebGL · Web Audio API · Three.js</text>

  <!-- Center glow orb -->
  <circle cx="400" cy="265" r="55" fill="url(#centerGlow)"/>
  <circle cx="400" cy="265" r="28" fill="#ffffff22"/>
  <circle cx="400" cy="265" r="14" fill="#ffffff55"/>
  <circle cx="400" cy="265" r="6" fill="#ffffff"/>

  <!-- 3D Particle field — spread between x=100-700, y=130-420 -->
  <!-- Large bright particles near center -->
  <circle cx="400" cy="265" r="3" fill="#ffffff"/>
  <circle cx="370" cy="248" r="2.5" fill="#79c0ff"/>
  <circle cx="432" cy="250" r="2.5" fill="#bc8cff"/>
  <circle cx="385" cy="285" r="2" fill="#79c0ff"/>
  <circle cx="418" cy="280" r="2" fill="#ffffff88"/>

  <!-- Mid-distance particles -->
  <circle cx="320" cy="220" r="2" fill="#58a6ff"/>
  <circle cx="480" cy="215" r="2" fill="#bc8cff"/>
  <circle cx="310" cy="295" r="2" fill="#79c0ff"/>
  <circle cx="490" cy="300" r="2" fill="#58a6ff"/>
  <circle cx="350" cy="310" r="1.8" fill="#bc8cff"/>
  <circle cx="455" cy="308" r="1.8" fill="#79c0ff"/>
  <circle cx="340" cy="230" r="1.8" fill="#ffffff66"/>
  <circle cx="460" cy="228" r="1.8" fill="#ffffff66"/>

  <!-- Far particles — scattered across x=100-700, y=130-420 -->
  <circle cx="160" cy="175" r="1.5" fill="#58a6ff88"/>
  <circle cx="220" cy="155" r="1.2" fill="#bc8cff88"/>
  <circle cx="280" cy="145" r="1" fill="#79c0ff66"/>
  <circle cx="520" cy="148" r="1.2" fill="#58a6ff88"/>
  <circle cx="590" cy="160" r="1.5" fill="#bc8cff88"/>
  <circle cx="650" cy="175" r="1.2" fill="#79c0ff66"/>
  <circle cx="130" cy="230" r="1.5" fill="#bc8cff88"/>
  <circle cx="155" cy="300" r="1.2" fill="#58a6ff66"/>
  <circle cx="120" cy="360" r="1" fill="#79c0ff55"/>
  <circle cx="670" cy="235" r="1.5" fill="#58a6ff88"/>
  <circle cx="695" cy="305" r="1.2" fill="#bc8cff66"/>
  <circle cx="680" cy="370" r="1" fill="#79c0ff55"/>
  <circle cx="240" cy="380" r="1.5" fill="#58a6ff66"/>
  <circle cx="185" cy="400" r="1.2" fill="#bc8cff55"/>
  <circle cx="560" cy="385" r="1.5" fill="#58a6ff66"/>
  <circle cx="620" cy="405" r="1.2" fill="#79c0ff55"/>
  <circle cx="300" cy="170" r="1" fill="#ffffff44"/>
  <circle cx="500" cy="170" r="1" fill="#ffffff44"/>
  <circle cx="200" cy="265" r="1.5" fill="#58a6ff66"/>
  <circle cx="600" cy="265" r="1.5" fill="#bc8cff66"/>

  <!-- More mid particles for density -->
  <circle cx="255" cy="195" r="1.5" fill="#79c0ff77"/>
  <circle cx="545" cy="192" r="1.5" fill="#58a6ff77"/>
  <circle cx="265" cy="340" r="1.5" fill="#bc8cff77"/>
  <circle cx="535" cy="345" r="1.5" fill="#79c0ff77"/>
  <circle cx="355" cy="148" r="1.2" fill="#58a6ff66"/>
  <circle cx="445" cy="145" r="1.2" fill="#bc8cff66"/>
  <circle cx="360" cy="390" r="1.5" fill="#79c0ff66"/>
  <circle cx="440" cy="388" r="1.5" fill="#58a6ff66"/>
  <circle cx="145" cy="265" r="1.2" fill="#bc8cff55"/>
  <circle cx="655" cy="265" r="1.2" fill="#58a6ff55"/>

  <!-- Radial energy lines from center -->
  <line x1="400" y1="265" x2="180" y2="160" stroke="#79c0ff22" stroke-width="1"/>
  <line x1="400" y1="265" x2="620" y2="158" stroke="#bc8cff22" stroke-width="1"/>
  <line x1="400" y1="265" x2="140" y2="350" stroke="#58a6ff22" stroke-width="1"/>
  <line x1="400" y1="265" x2="660" y2="355" stroke="#79c0ff22" stroke-width="1"/>
  <line x1="400" y1="265" x2="400" y2="145" stroke="#ffffff22" stroke-width="1"/>
  <line x1="400" y1="265" x2="250" y2="415" stroke="#58a6ff11" stroke-width="1"/>
  <line x1="400" y1="265" x2="550" y2="412" stroke="#bc8cff11" stroke-width="1"/>

  <!-- Frequency bars (above waveform, y=390 to y=420) -->
  <!-- bars at various heights, within x=80-720 -->
  <rect x="85"  y="402" width="8" height="18" rx="1" fill="#58a6ff"/>
  <rect x="96"  y="397" width="8" height="23" rx="1" fill="#58a6ff"/>
  <rect x="107" y="393" width="8" height="27" rx="1" fill="#79c0ff"/>
  <rect x="118" y="388" width="8" height="32" rx="1" fill="#79c0ff"/>
  <rect x="129" y="394" width="8" height="26" rx="1" fill="#58a6ff"/>
  <rect x="140" y="400" width="8" height="20" rx="1" fill="#58a6ff"/>
  <rect x="151" y="396" width="8" height="24" rx="1" fill="#79c0ff"/>
  <rect x="162" y="391" width="8" height="29" rx="1" fill="#bc8cff"/>
  <rect x="173" y="385" width="8" height="35" rx="1" fill="#bc8cff"/>
  <rect x="184" y="380" width="8" height="40" rx="1" fill="#bc8cff"/>
  <rect x="195" y="376" width="8" height="44" rx="1" fill="#f78166"/>
  <rect x="206" y="372" width="8" height="48" rx="1" fill="#f78166"/>
  <rect x="217" y="368" width="8" height="52" rx="1" fill="#f85149"/>
  <rect x="228" y="364" width="8" height="56" rx="1" fill="#f85149"/>
  <rect x="239" y="360" width="8" height="60" rx="1" fill="#f85149"/>
  <rect x="250" y="363" width="8" height="57" rx="1" fill="#f78166"/>
  <rect x="261" y="367" width="8" height="53" rx="1" fill="#bc8cff"/>
  <rect x="272" y="371" width="8" height="49" rx="1" fill="#bc8cff"/>
  <rect x="283" y="375" width="8" height="45" rx="1" fill="#79c0ff"/>
  <rect x="294" y="380" width="8" height="40" rx="1" fill="#79c0ff"/>
  <rect x="305" y="384" width="8" height="36" rx="1" fill="#58a6ff"/>
  <rect x="316" y="388" width="8" height="32" rx="1" fill="#58a6ff"/>
  <rect x="327" y="391" width="8" height="29" rx="1" fill="#79c0ff"/>
  <rect x="338" y="394" width="8" height="26" rx="1" fill="#79c0ff"/>
  <rect x="349" y="397" width="8" height="23" rx="1" fill="#58a6ff"/>
  <rect x="360" y="399" width="8" height="21" rx="1" fill="#58a6ff"/>
  <rect x="371" y="400" width="8" height="20" rx="1" fill="#79c0ff"/>
  <rect x="382" y="399" width="8" height="21" rx="1" fill="#79c0ff"/>
  <rect x="393" y="397" width="8" height="23" rx="1" fill="#58a6ff"/>
  <rect x="404" y="395" width="8" height="25" rx="1" fill="#58a6ff"/>
  <rect x="415" y="392" width="8" height="28" rx="1" fill="#79c0ff"/>
  <rect x="426" y="389" width="8" height="31" rx="1" fill="#bc8cff"/>
  <rect x="437" y="385" width="8" height="35" rx="1" fill="#bc8cff"/>
  <rect x="448" y="381" width="8" height="39" rx="1" fill="#f78166"/>
  <rect x="459" y="377" width="8" height="43" rx="1" fill="#f78166"/>
  <rect x="470" y="373" width="8" height="47" rx="1" fill="#f85149"/>
  <rect x="481" y="368" width="8" height="52" rx="1" fill="#f85149"/>
  <rect x="492" y="371" width="8" height="49" rx="1" fill="#f78166"/>
  <rect x="503" y="375" width="8" height="45" rx="1" fill="#bc8cff"/>
  <rect x="514" y="379" width="8" height="41" rx="1" fill="#bc8cff"/>
  <rect x="525" y="383" width="8" height="37" rx="1" fill="#79c0ff"/>
  <rect x="536" y="387" width="8" height="33" rx="1" fill="#79c0ff"/>
  <rect x="547" y="391" width="8" height="29" rx="1" fill="#58a6ff"/>
  <rect x="558" y="394" width="8" height="26" rx="1" fill="#58a6ff"/>
  <rect x="569" y="397" width="8" height="23" rx="1" fill="#79c0ff"/>
  <rect x="580" y="399" width="8" height="21" rx="1" fill="#79c0ff"/>
  <rect x="591" y="401" width="8" height="19" rx="1" fill="#58a6ff"/>
  <rect x="602" y="399" width="8" height="21" rx="1" fill="#58a6ff"/>
  <rect x="613" y="397" width="8" height="23" rx="1" fill="#79c0ff"/>
  <rect x="624" y="394" width="8" height="26" rx="1" fill="#bc8cff"/>
  <rect x="635" y="391" width="8" height="29" rx="1" fill="#bc8cff"/>
  <rect x="646" y="395" width="8" height="25" rx="1" fill="#58a6ff"/>
  <rect x="657" y="399" width="8" height="21" rx="1" fill="#58a6ff"/>
  <rect x="668" y="402" width="8" height="18" rx="1" fill="#79c0ff"/>
  <rect x="679" y="404" width="8" height="16" rx="1" fill="#58a6ff"/>
  <rect x="690" y="403" width="8" height="17" rx="1" fill="#58a6ff"/>
  <rect x="701" y="405" width="8" height="15" rx="1" fill="#79c0ff"/>
  <rect x="712" y="406" width="8" height="14" rx="1" fill="#58a6ff"/>

  <!-- Waveform strip at bottom: y=422 to y=465, x=80 to x=720 -->
  <rect x="80" y="422" width="640" height="45" rx="3" fill="#0a0a0a" stroke="#30363d" stroke-width="1"/>
  <line x1="80" y1="444" x2="720" y2="444" stroke="#30363d" stroke-width="0.5"/>
  <!-- Waveform line -->
  <polyline points="80,444 90,438 100,432 110,440 120,444 130,448 140,442 150,436 160,444 170,452 180,444 190,437 200,430 210,438 220,444 230,450 240,443 250,436 260,444 270,453 280,444 290,437 300,428 310,436 320,444 330,452 340,443 350,435 360,444 370,454 380,444 390,436 400,444 410,453 420,443 430,435 440,444 450,454 460,444 470,436 480,444 490,452 500,444 510,437 520,430 530,438 540,444 550,450 560,443 570,436 580,444 590,453 600,444 610,437 620,430 630,438 640,444 650,450 660,443 670,437 680,444 690,450 700,444 710,439 720,444"
    fill="none" stroke="#58a6ff" stroke-width="1.5"/>

  <!-- Info panel top-right: x=620, y=82, width=160, height=130 -->
  <rect x="620" y="82" width="160" height="130" rx="6" fill="#0d1117cc" stroke="#30363d" stroke-width="1"/>
  <text x="700" y="100" text-anchor="middle" font-family="monospace" font-size="10" fill="#79c0ff">Audio Analysis</text>
  <line x1="628" y1="106" x2="772" y2="106" stroke="#30363d" stroke-width="1"/>
  <text x="628" y="120" font-family="monospace" font-size="9" fill="#8b949e">BPM:</text>
  <text x="700" y="120" font-family="monospace" font-size="9" font-weight="bold" fill="#3fb950">124</text>
  <text x="628" y="135" font-family="monospace" font-size="9" fill="#8b949e">Key:</text>
  <text x="700" y="135" font-family="monospace" font-size="9" fill="#e3b341">A Minor</text>
  <text x="628" y="150" font-family="monospace" font-size="9" fill="#8b949e">Bass:</text>
  <text x="700" y="150" font-family="monospace" font-size="9" fill="#f78166">HIGH</text>
  <text x="628" y="165" font-family="monospace" font-size="9" fill="#8b949e">Particles:</text>
  <text x="700" y="165" font-family="monospace" font-size="9" fill="#bc8cff">2,048</text>
  <text x="628" y="180" font-family="monospace" font-size="9" fill="#8b949e">FPS:</text>
  <text x="700" y="180" font-family="monospace" font-size="9" fill="#3fb950">60</text>
  <text x="628" y="195" font-family="monospace" font-size="9" fill="#8b949e">FFT Size:</text>
  <text x="700" y="195" font-family="monospace" font-size="9" fill="#58a6ff">2048</text>
  <text x="628" y="205" font-family="monospace" font-size="9" fill="#8b949e">Mode:</text>
  <text x="700" y="205" font-family="monospace" font-size="9" fill="#79c0ff">3D Sphere</text>
</svg>
