<svg xmlns="http://www.w3.org/2000/svg" viewBox="0 0 800 500" width="800" height="500">
  <defs><linearGradient id="bg" x1="0%" y1="0%" x2="100%" y2="100%"><stop offset="0%" style="stop-color:#0d1117"/><stop offset="100%" style="stop-color:#1a2e1a"/></linearGradient></defs>
  <rect width="800" height="500" fill="url(#bg)"/>
  <!-- Bar chart -->
  <rect x="90" y="350" width="45" height="120" fill="#3fb95066" stroke="#3fb950" stroke-width="1.5" transform="scale(1,-1) translate(0,-470)"/>
  <rect x="150" y="350" width="45" height="180" fill="#3fb95066" stroke="#3fb950" stroke-width="1.5" transform="scale(1,-1) translate(0,-470)"/>
  <rect x="210" y="350" width="45" height="90" fill="#3fb95066" stroke="#3fb950" stroke-width="1.5" transform="scale(1,-1) translate(0,-470)"/>
  <rect x="270" y="350" width="45" height="150" fill="#3fb95066" stroke="#3fb950" stroke-width="1.5" transform="scale(1,-1) translate(0,-470)"/>
  <rect x="330" y="350" width="45" height="200" fill="#3fb95066" stroke="#3fb950" stroke-width="1.5" transform="scale(1,-1) translate(0,-470)"/>
  <!-- X axis -->
  <line x1="80" y1="350" x2="400" y2="350" stroke="#30363d" stroke-width="1.5"/>
  <line x1="80" y1="150" x2="80" y2="350" stroke="#30363d" stroke-width="1.5"/>
  <text x="112" y="368" fill="#8b949e" font-family="monospace" font-size="9" text-anchor="middle">Mon</text>
  <text x="172" y="368" fill="#8b949e" font-family="monospace" font-size="9" text-anchor="middle">Tue</text>
  <text x="232" y="368" fill="#8b949e" font-family="monospace" font-size="9" text-anchor="middle">Wed</text>
  <text x="292" y="368" fill="#8b949e" font-family="monospace" font-size="9" text-anchor="middle">Thu</text>
  <text x="352" y="368" fill="#8b949e" font-family="monospace" font-size="9" text-anchor="middle">Fri</text>
  <!-- Line chart (right) -->
  <polyline points="440,320 490,270 540,290 590,220 640,240 690,180 740,200" fill="none" stroke="#58a6ff" stroke-width="2.5"/>
  <circle cx="440" cy="320" r="4" fill="#58a6ff"/>
  <circle cx="490" cy="270" r="4" fill="#58a6ff"/>
  <circle cx="540" cy="290" r="4" fill="#58a6ff"/>
  <circle cx="590" cy="220" r="4" fill="#58a6ff"/>
  <circle cx="640" cy="240" r="4" fill="#58a6ff"/>
  <circle cx="690" cy="180" r="4" fill="#58a6ff"/>
  <circle cx="740" cy="200" r="4" fill="#58a6ff"/>
  <line x1="430" y1="350" x2="750" y2="350" stroke="#30363d" stroke-width="1.5"/>
  <line x1="430" y1="150" x2="430" y2="350" stroke="#30363d" stroke-width="1.5"/>
  <!-- Insight box -->
  <rect x="430" y="375" width="320" height="55" rx="4" fill="#161b22" stroke="#e3b341" stroke-width="1.5"/>
  <text x="590" y="397" text-anchor="middle" fill="#e3b341" font-family="monospace" font-size="11">↑ 23% avg daily steps on weekdays</text>
  <text x="590" y="416" text-anchor="middle" fill="#8b949e" font-family="monospace" font-size="10">Bellabeat · Pandas · Power BI · EDA</text>
  <!-- Pie chart hint -->
  <path d="M190 430 A50 50 0 0 1 240 430 L215 410 Z" fill="#3fb950" opacity="0.7"/>
  <path d="M240 430 A50 50 0 0 1 190 430 L215 410 Z" fill="#58a6ff" opacity="0.7"/>
  <text x="215" y="475" text-anchor="middle" fill="#8b949e" font-family="monospace" font-size="10">Activity Split</text>
  <text x="400" y="65" text-anchor="middle" fill="#ffffff" font-family="monospace" font-size="20" font-weight="bold">Bellabeat Case Study</text>
  <text x="400" y="92" text-anchor="middle" fill="#8b949e" font-family="monospace" font-size="13">Python · Pandas · EDA · Power BI</text>
</svg>
