<svg xmlns="http://www.w3.org/2000/svg" viewBox="0 0 800 500" width="800" height="500">
  <defs><linearGradient id="bg" x1="0%" y1="0%" x2="100%" y2="100%"><stop offset="0%" style="stop-color:#0d1117"/><stop offset="100%" style="stop-color:#1a2332"/></linearGradient></defs>
  <rect width="800" height="500" fill="url(#bg)"/>
  <!-- Resume document -->
  <rect x="70" y="120" width="240" height="310" rx="4" fill="#f0f6fc" stroke="#30363d" stroke-width="1.5"/>
  <rect x="70" y="120" width="240" height="40" rx="4" fill="#21262d"/>
  <text x="190" y="146" text-anchor="middle" fill="#f0f6fc" font-family="monospace" font-size="12" font-weight="bold">John Smith</text>
  <rect x="85" y="172" width="210" height="7" rx="2" fill="#d0d7de"/>
  <rect x="85" y="185" width="180" height="5" rx="2" fill="#e6edf3"/>
  <rect x="85" y="196" width="195" height="5" rx="2" fill="#e6edf3"/>
  <rect x="85" y="215" width="80" height="6" rx="2" fill="#21262d"/>
  <rect x="85" y="227" width="210" height="4" rx="2" fill="#e6edf3"/>
  <rect x="85" y="237" width="200" height="4" rx="2" fill="#e6edf3"/>
  <rect x="85" y="247" width="185" height="4" rx="2" fill="#e6edf3"/>
  <rect x="85" y="265" width="80" height="6" rx="2" fill="#21262d"/>
  <rect x="85" y="277" width="210" height="4" rx="2" fill="#e6edf3"/>
  <rect x="85" y="287" width="175" height="4" rx="2" fill="#e6edf3"/>
  <rect x="85" y="305" width="80" height="6" rx="2" fill="#21262d"/>
  <rect x="85" y="317" width="210" height="4" rx="2" fill="#e6edf3"/>
  <rect x="85" y="327" width="190" height="4" rx="2" fill="#e6edf3"/>
  <rect x="85" y="337" width="205" height="4" rx="2" fill="#e6edf3"/>
  <rect x="85" y="350" width="80" height="6" rx="2" fill="#21262d"/>
  <rect x="85" y="362" width="120" height="14" rx="3" fill="#58a6ff33"/>
  <rect x="212" y="362" width="82" height="14" rx="3" fill="#3fb95033"/>
  <!-- Arrow -->
  <line x1="320" y1="275" x2="370" y2="275" stroke="#58a6ff" stroke-width="2.5"/>
  <polygon points="370,268 385,275 370,282" fill="#58a6ff"/>
  <!-- Score panel -->
  <rect x="385" y="120" width="390" height="310" rx="6" fill="#161b22" stroke="#58a6ff" stroke-width="2"/>
  <text x="580" y="150" text-anchor="middle" fill="#58a6ff" font-family="monospace" font-size="13" font-weight="bold">ATS Analysis Report</text>
  <line x1="385" y1="162" x2="775" y2="162" stroke="#30363d" stroke-width="1"/>
  <!-- Score gauge -->
  <text x="490" y="195" text-anchor="middle" fill="#8b949e" font-family="monospace" font-size="10">ATS Score</text>
  <circle cx="490" cy="240" r="45" fill="none" stroke="#21262d" stroke-width="10"/>
  <circle cx="490" cy="240" r="45" fill="none" stroke="#3fb950" stroke-width="10" stroke-dasharray="198 283" stroke-dashoffset="70" stroke-linecap="round"/>
  <text x="490" y="245" text-anchor="middle" fill="#3fb950" font-family="monospace" font-size="20" font-weight="bold">82</text>
  <!-- Category scores -->
  <text x="620" y="185" fill="#8b949e" font-family="monospace" font-size="9">Action Verbs</text>
  <rect x="620" y="192" width="130" height="7" rx="3" fill="#21262d"/>
  <rect x="620" y="192" width="110" height="7" rx="3" fill="#3fb950" opacity="0.8"/>
  <text x="620" y="215" fill="#8b949e" font-family="monospace" font-size="9">Quantified Results</text>
  <rect x="620" y="222" width="130" height="7" rx="3" fill="#21262d"/>
  <rect x="620" y="222" width="85" height="7" rx="3" fill="#e3b341" opacity="0.8"/>
  <text x="620" y="245" fill="#8b949e" font-family="monospace" font-size="9">Keyword Density</text>
  <rect x="620" y="252" width="130" height="7" rx="3" fill="#21262d"/>
  <rect x="620" y="252" width="100" height="7" rx="3" fill="#58a6ff" opacity="0.8"/>
  <text x="620" y="275" fill="#8b949e" font-family="monospace" font-size="9">Formatting</text>
  <rect x="620" y="282" width="130" height="7" rx="3" fill="#21262d"/>
  <rect x="620" y="282" width="120" height="7" rx="3" fill="#3fb950" opacity="0.8"/>
  <!-- Feedback -->
  <rect x="400" y="305" width="360" height="25" rx="3" fill="#3fb95022"/>
  <text x="410" y="322" fill="#3fb950" font-family="monospace" font-size="9">✓ Strong action verbs detected</text>
  <rect x="400" y="335" width="360" height="25" rx="3" fill="#e3b34122"/>
  <text x="410" y="352" fill="#e3b341" font-family="monospace" font-size="9">⚠ Add 3 more quantified achievements</text>
  <rect x="400" y="365" width="360" height="25" rx="3" fill="#f8514922"/>
  <text x="410" y="382" fill="#f85149" font-family="monospace" font-size="9">✗ Missing target job keywords</text>
  <text x="400" y="65" text-anchor="middle" fill="#ffffff" font-family="monospace" font-size="18" font-weight="bold">ATS Resume Checker</text>
  <text x="400" y="92" text-anchor="middle" fill="#8b949e" font-family="monospace" font-size="13">Python · FastAPI · NLP · REST API</text>
</svg>
