<svg xmlns="http://www.w3.org/2000/svg" viewBox="0 0 800 500" width="800" height="500">
  <defs>
    <linearGradient id="bg29" x1="0%" y1="0%" x2="100%" y2="100%">
      <stop offset="0%" style="stop-color:#0d1117"/>
      <stop offset="100%" style="stop-color:#1a1a2e"/>
    </linearGradient>
  </defs>
  <rect width="800" height="500" fill="url(#bg29)"/>

  <!-- Title -->
  <text x="400" y="38" text-anchor="middle" font-family="monospace" font-size="18" font-weight="bold" fill="#58a6ff">Interactive Resume Dashboard</text>

  <!-- Dashboard outer frame -->
  <rect x="60" y="75" width="680" height="390" rx="8" fill="#161b22" stroke="#30363d" stroke-width="2"/>

  <!-- Dashboard top bar -->
  <rect x="60" y="75" width="680" height="36" rx="8" fill="#21262d"/>
  <rect x="60" y="93" width="680" height="18" fill="#21262d"/>
  <text x="400" y="98" text-anchor="middle" font-family="monospace" font-size="12" font-weight="bold" fill="#c9d1d9">Ryan Attia — Resume Dashboard</text>
  <!-- Top bar icons -->
  <circle cx="706" cy="93" r="6" fill="#f85149"/>
  <circle cx="722" cy="93" r="6" fill="#e3b341"/>
  <circle cx="738" cy="93" r="6" fill="#3fb950"/>

  <!-- Filter slicers row (just below top bar) -->
  <text x="76" y="128" font-family="monospace" font-size="9" fill="#8b949e">Filter:</text>
  <rect x="110" y="117" width="80" height="18" rx="3" fill="#2d333b" stroke="#58a6ff" stroke-width="1"/>
  <text x="150" y="129" text-anchor="middle" font-family="monospace" font-size="9" fill="#58a6ff">All Years ▾</text>
  <rect x="198" y="117" width="80" height="18" rx="3" fill="#2d333b" stroke="#30363d" stroke-width="1"/>
  <text x="238" y="129" text-anchor="middle" font-family="monospace" font-size="9" fill="#c9d1d9">All Skills ▾</text>
  <rect x="286" y="117" width="80" height="18" rx="3" fill="#2d333b" stroke="#30363d" stroke-width="1"/>
  <text x="326" y="129" text-anchor="middle" font-family="monospace" font-size="9" fill="#c9d1d9">Domain ▾</text>

  <!-- ===== KPI Cards (4 cards) ===== -->
  <!-- Card 1: Projects -->
  <rect x="75" y="143" width="150" height="72" rx="5" fill="#0d1117" stroke="#58a6ff" stroke-width="1.5"/>
  <text x="150" y="161" text-anchor="middle" font-family="monospace" font-size="9" fill="#8b949e">Total Projects</text>
  <text x="150" y="190" text-anchor="middle" font-family="monospace" font-size="28" font-weight="bold" fill="#58a6ff">35</text>
  <text x="150" y="207" text-anchor="middle" font-family="monospace" font-size="8" fill="#3fb950">▲ +5 this year</text>

  <!-- Card 2: Skills -->
  <rect x="237" y="143" width="150" height="72" rx="5" fill="#0d1117" stroke="#3fb950" stroke-width="1.5"/>
  <text x="312" y="161" text-anchor="middle" font-family="monospace" font-size="9" fill="#8b949e">Tech Skills</text>
  <text x="312" y="190" text-anchor="middle" font-family="monospace" font-size="28" font-weight="bold" fill="#3fb950">18</text>
  <text x="312" y="207" text-anchor="middle" font-family="monospace" font-size="8" fill="#3fb950">▲ +3 new</text>

  <!-- Card 3: GPA -->
  <rect x="399" y="143" width="150" height="72" rx="5" fill="#0d1117" stroke="#e3b341" stroke-width="1.5"/>
  <text x="474" y="161" text-anchor="middle" font-family="monospace" font-size="9" fill="#8b949e">GPA</text>
  <text x="474" y="190" text-anchor="middle" font-family="monospace" font-size="28" font-weight="bold" fill="#e3b341">3.8</text>
  <text x="474" y="207" text-anchor="middle" font-family="monospace" font-size="8" fill="#e3b341">Dean's List</text>

  <!-- Card 4: Experience -->
  <rect x="561" y="143" width="163" height="72" rx="5" fill="#0d1117" stroke="#bc8cff" stroke-width="1.5"/>
  <text x="642" y="161" text-anchor="middle" font-family="monospace" font-size="9" fill="#8b949e">Experience</text>
  <text x="642" y="190" text-anchor="middle" font-family="monospace" font-size="28" font-weight="bold" fill="#bc8cff">2+</text>
  <text x="642" y="207" text-anchor="middle" font-family="monospace" font-size="8" fill="#bc8cff">Years</text>

  <!-- ===== Skills Bar Chart (bottom-left) ===== -->
  <rect x="75" y="228" width="220" height="210" rx="5" fill="#0d1117" stroke="#30363d" stroke-width="1"/>
  <text x="185" y="246" text-anchor="middle" font-family="monospace" font-size="10" fill="#58a6ff">Skill Proficiency</text>

  <!-- Horizontal bars -->
  <!-- Python -->
  <text x="80" y="265" font-family="monospace" font-size="9" fill="#c9d1d9">Python</text>
  <rect x="135" y="255" width="150" height="12" rx="2" fill="#21262d"/>
  <rect x="135" y="255" width="142" height="12" rx="2" fill="#58a6ff"/>
  <text x="288" y="265" font-family="monospace" font-size="8" fill="#58a6ff">95%</text>

  <!-- Java -->
  <text x="80" y="285" font-family="monospace" font-size="9" fill="#c9d1d9">Java</text>
  <rect x="135" y="275" width="150" height="12" rx="2" fill="#21262d"/>
  <rect x="135" y="275" width="128" height="12" rx="2" fill="#3fb950"/>
  <text x="288" y="285" font-family="monospace" font-size="8" fill="#3fb950">85%</text>

  <!-- SQL -->
  <text x="80" y="305" font-family="monospace" font-size="9" fill="#c9d1d9">SQL</text>
  <rect x="135" y="295" width="150" height="12" rx="2" fill="#21262d"/>
  <rect x="135" y="295" width="120" height="12" rx="2" fill="#e3b341"/>
  <text x="288" y="305" font-family="monospace" font-size="8" fill="#e3b341">80%</text>

  <!-- ML -->
  <text x="80" y="325" font-family="monospace" font-size="9" fill="#c9d1d9">ML/AI</text>
  <rect x="135" y="315" width="150" height="12" rx="2" fill="#21262d"/>
  <rect x="135" y="315" width="112" height="12" rx="2" fill="#bc8cff"/>
  <text x="288" y="325" font-family="monospace" font-size="8" fill="#bc8cff">75%</text>

  <!-- Power BI -->
  <text x="80" y="345" font-family="monospace" font-size="9" fill="#c9d1d9">Power BI</text>
  <rect x="135" y="335" width="150" height="12" rx="2" fill="#21262d"/>
  <rect x="135" y="335" width="105" height="12" rx="2" fill="#f78166"/>
  <text x="288" y="345" font-family="monospace" font-size="8" fill="#f78166">70%</text>

  <!-- VHDL -->
  <text x="80" y="365" font-family="monospace" font-size="9" fill="#c9d1d9">VHDL</text>
  <rect x="135" y="355" width="150" height="12" rx="2" fill="#21262d"/>
  <rect x="135" y="355" width="97" height="12" rx="2" fill="#58a6ff"/>
  <text x="288" y="365" font-family="monospace" font-size="8" fill="#58a6ff">65%</text>

  <!-- JS -->
  <text x="80" y="385" font-family="monospace" font-size="9" fill="#c9d1d9">JavaScript</text>
  <rect x="135" y="375" width="150" height="12" rx="2" fill="#21262d"/>
  <rect x="135" y="375" width="90" height="12" rx="2" fill="#3fb950"/>
  <text x="288" y="385" font-family="monospace" font-size="8" fill="#3fb950">60%</text>

  <!-- ===== Donut Chart (center-bottom) ===== -->
  <rect x="310" y="228" width="170" height="210" rx="5" fill="#0d1117" stroke="#30363d" stroke-width="1"/>
  <text x="395" y="246" text-anchor="middle" font-family="monospace" font-size="10" fill="#e3b341">Project Types</text>

  <!-- Donut centered at 395,340, outer r=55, inner r=32 -->
  <!-- AI/ML: 30% → 108deg -->
  <path d="M395,285 L395,340 m0,-55 A55,55 0 0,1 447,368 L430,353 A32,32 0 0,0 395,308 Z" fill="#bc8cff"/>
  <!-- Software: 25% → 90deg -->
  <path d="M447,368 A55,55 0 0,1 395,395 L395,372 A32,32 0 0,0 430,353 Z" fill="#58a6ff"/>
  <!-- Embedded: 20% → 72deg -->
  <path d="M395,395 A55,55 0 0,1 340,368 L357,353 A32,32 0 0,0 395,372 Z" fill="#3fb950"/>
  <!-- Data: 15% → 54deg -->
  <path d="M340,368 A55,55 0 0,1 340,312 L357,327 A32,32 0 0,0 357,353 Z" fill="#e3b341"/>
  <!-- Other: 10% → 36deg -->
  <path d="M340,312 A55,55 0 0,1 395,285 L395,308 A32,32 0 0,0 357,327 Z" fill="#f78166"/>
  <!-- Center hole fill -->
  <circle cx="395" cy="340" r="30" fill="#0d1117"/>
  <text x="395" y="336" text-anchor="middle" font-family="monospace" font-size="9" fill="#c9d1d9">35</text>
  <text x="395" y="348" text-anchor="middle" font-family="monospace" font-size="8" fill="#8b949e">projects</text>

  <!-- Legend -->
  <rect x="316" y="404" width="10" height="10" fill="#bc8cff" rx="1"/>
  <text x="330" y="413" font-family="monospace" font-size="8" fill="#c9d1d9">AI/ML 30%</text>
  <rect x="390" y="404" width="10" height="10" fill="#58a6ff" rx="1"/>
  <text x="404" y="413" font-family="monospace" font-size="8" fill="#c9d1d9">SW 25%</text>
  <rect x="316" y="420" width="10" height="10" fill="#3fb950" rx="1"/>
  <text x="330" y="429" font-family="monospace" font-size="8" fill="#c9d1d9">Embed 20%</text>
  <rect x="390" y="420" width="10" height="10" fill="#e3b341" rx="1"/>
  <text x="404" y="429" font-family="monospace" font-size="8" fill="#c9d1d9">Data 15%</text>

  <!-- ===== Timeline (right) ===== -->
  <rect x="495" y="228" width="229" height="210" rx="5" fill="#0d1117" stroke="#30363d" stroke-width="1"/>
  <text x="609" y="246" text-anchor="middle" font-family="monospace" font-size="10" fill="#bc8cff">Education &amp; Experience</text>

  <!-- Timeline line -->
  <line x1="520" y1="258" x2="520" y2="428" stroke="#30363d" stroke-width="2"/>

  <!-- Events -->
  <circle cx="520" cy="268" r="5" fill="#3fb950"/>
  <text x="532" y="265" font-family="monospace" font-size="9" font-weight="bold" fill="#3fb950">2023 — Concordia University</text>
  <text x="532" y="278" font-family="monospace" font-size="8" fill="#8b949e">B.Eng Computer Engineering</text>

  <circle cx="520" cy="300" r="5" fill="#58a6ff"/>
  <text x="532" y="297" font-family="monospace" font-size="9" font-weight="bold" fill="#58a6ff">2024 — Research Assistant</text>
  <text x="532" y="310" font-family="monospace" font-size="8" fill="#8b949e">AI/ML projects · Python</text>

  <circle cx="520" cy="335" r="5" fill="#e3b341"/>
  <text x="532" y="332" font-family="monospace" font-size="9" font-weight="bold" fill="#e3b341">2025 — Data Analyst Intern</text>
  <text x="532" y="345" font-family="monospace" font-size="8" fill="#8b949e">Power BI · Pandas · SQL</text>

  <circle cx="520" cy="370" r="5" fill="#bc8cff"/>
  <text x="532" y="367" font-family="monospace" font-size="9" font-weight="bold" fill="#bc8cff">2026 — Graduation</text>
  <text x="532" y="380" font-family="monospace" font-size="8" fill="#8b949e">Dean's List · 3.8 GPA</text>

  <circle cx="520" cy="405" r="5" fill="#f78166"/>
  <text x="532" y="402" font-family="monospace" font-size="9" font-weight="bold" fill="#f78166">2026 — Job Seeking</text>
  <text x="532" y="415" font-family="monospace" font-size="8" fill="#8b949e">Open to opportunities</text>
</svg>
