<svg xmlns="http://www.w3.org/2000/svg" viewBox="0 0 800 500" width="800" height="500">
  <defs><linearGradient id="bg" x1="0%" y1="0%" x2="100%" y2="100%"><stop offset="0%" style="stop-color:#0d1117"/><stop offset="100%" style="stop-color:#1a1a2e"/></linearGradient></defs>
  <rect width="800" height="500" fill="url(#bg)"/>
  <!-- Dashboard frame -->
  <rect x="60" y="120" width="680" height="330" rx="8" fill="#161b22" stroke="#30363d" stroke-width="2"/>
  <!-- Top bar -->
  <rect x="60" y="120" width="680" height="36" rx="8" fill="#21262d"/>
  <text x="240" y="143" text-anchor="middle" fill="#f0f6fc" font-family="monospace" font-size="12" font-weight="bold">Interactive Resume Dashboard</text>
  <rect x="680" y="128" width="50" height="20" rx="3" fill="#58a6ff33" stroke="#58a6ff" stroke-width="1"/>
  <text x="705" y="142" text-anchor="middle" fill="#58a6ff" font-family="monospace" font-size="9">Export</text>
  <!-- KPI cards -->
  <rect x="80" y="170" width="140" height="70" rx="4" fill="#0d1117" stroke="#3fb95066" stroke-width="1.5"/>
  <text x="150" y="195" text-anchor="middle" fill="#8b949e" font-family="monospace" font-size="9">Projects</text>
  <text x="150" y="225" text-anchor="middle" fill="#3fb950" font-family="monospace" font-size="26" font-weight="bold">35</text>
  <rect x="235" y="170" width="140" height="70" rx="4" fill="#0d1117" stroke="#58a6ff66" stroke-width="1.5"/>
  <text x="305" y="195" text-anchor="middle" fill="#8b949e" font-family="monospace" font-size="9">Skills</text>
  <text x="305" y="225" text-anchor="middle" fill="#58a6ff" font-family="monospace" font-size="26" font-weight="bold">12+</text>
  <rect x="390" y="170" width="140" height="70" rx="4" fill="#0d1117" stroke="#e3b34166" stroke-width="1.5"/>
  <text x="460" y="195" text-anchor="middle" fill="#8b949e" font-family="monospace" font-size="9">GPA</text>
  <text x="460" y="225" text-anchor="middle" fill="#e3b341" font-family="monospace" font-size="26" font-weight="bold">3.9</text>
  <rect x="545" y="170" width="175" height="70" rx="4" fill="#0d1117" stroke="#bc8cff66" stroke-width="1.5"/>
  <text x="632" y="195" text-anchor="middle" fill="#8b949e" font-family="monospace" font-size="9">Domains</text>
  <text x="632" y="225" text-anchor="middle" fill="#bc8cff" font-family="monospace" font-size="26" font-weight="bold">ML · HW · Web</text>
  <!-- Bar chart skills -->
  <text x="80" y="270" fill="#8b949e" font-family="monospace" font-size="10">Skills Proficiency</text>
  <text x="80" y="290" fill="#8b949e" font-family="monospace" font-size="9">Python</text>
  <rect x="140" y="280" width="160" height="10" rx="2" fill="#3fb950" opacity="0.8"/>
  <text x="80" y="308" fill="#8b949e" font-family="monospace" font-size="9">C/C++</text>
  <rect x="140" y="298" width="130" height="10" rx="2" fill="#58a6ff" opacity="0.8"/>
  <text x="80" y="326" fill="#8b949e" font-family="monospace" font-size="9">Verilog</text>
  <rect x="140" y="316" width="110" height="10" rx="2" fill="#bc8cff" opacity="0.8"/>
  <text x="80" y="344" fill="#8b949e" font-family="monospace" font-size="9">Power BI</text>
  <rect x="140" y="334" width="120" height="10" rx="2" fill="#e3b341" opacity="0.8"/>
  <!-- Donut chart -->
  <circle cx="560" cy="340" r="65" fill="none" stroke="#3fb950" stroke-width="22" stroke-dasharray="100 306" stroke-dashoffset="0" opacity="0.8"/>
  <circle cx="560" cy="340" r="65" fill="none" stroke="#58a6ff" stroke-width="22" stroke-dasharray="80 306" stroke-dashoffset="-100" opacity="0.8"/>
  <circle cx="560" cy="340" r="65" fill="none" stroke="#e3b341" stroke-width="22" stroke-dasharray="70 306" stroke-dashoffset="-180" opacity="0.8"/>
  <circle cx="560" cy="340" r="65" fill="none" stroke="#bc8cff" stroke-width="22" stroke-dasharray="56 306" stroke-dashoffset="-250" opacity="0.8"/>
  <text x="560" y="335" text-anchor="middle" fill="#f0f6fc" font-family="monospace" font-size="10">Project</text>
  <text x="560" y="350" text-anchor="middle" fill="#f0f6fc" font-family="monospace" font-size="10">Split</text>
  <!-- Slicer -->
  <rect x="310" y="270" width="190" height="110" rx="4" fill="#0d1117" stroke="#30363d" stroke-width="1"/>
  <text x="405" y="290" text-anchor="middle" fill="#8b949e" font-family="monospace" font-size="9">Filter by Year</text>
  <rect x="320" y="298" width="80" height="18" rx="3" fill="#58a6ff33" stroke="#58a6ff" stroke-width="1"/><text x="360" y="311" text-anchor="middle" fill="#58a6ff" font-family="monospace" font-size="9">2024</text>
  <rect x="410" y="298" width="80" height="18" rx="3" fill="#21262d"/><text x="450" y="311" text-anchor="middle" fill="#8b949e" font-family="monospace" font-size="9">2025</text>
  <rect x="320" y="324" width="80" height="18" rx="3" fill="#21262d"/><text x="360" y="337" text-anchor="middle" fill="#8b949e" font-family="monospace" font-size="9">2026</text>
  <rect x="410" y="324" width="80" height="18" rx="3" fill="#21262d"/><text x="450" y="337" text-anchor="middle" fill="#8b949e" font-family="monospace" font-size="9">All</text>
  <text x="400" y="65" text-anchor="middle" fill="#ffffff" font-family="monospace" font-size="18" font-weight="bold">Interactive Resume Dashboard</text>
  <text x="400" y="92" text-anchor="middle" fill="#8b949e" font-family="monospace" font-size="13">Power BI · DAX · Data Modeling</text>
</svg>
