<svg xmlns="http://www.w3.org/2000/svg" viewBox="0 0 800 500" width="800" height="500">
  <defs>
    <linearGradient id="bg18" x1="0%" y1="0%" x2="100%" y2="100%">
      <stop offset="0%" style="stop-color:#0d1117"/>
      <stop offset="100%" style="stop-color:#1a2332"/>
    </linearGradient>
  </defs>
  <rect width="800" height="500" fill="url(#bg18)"/>
  <!-- Pipeline stages -->
  <rect x="60" y="180" width="110" height="60" rx="6" fill="none" stroke="#58a6ff" stroke-width="2"/>
  <text x="115" y="215" text-anchor="middle" fill="#58a6ff" font-family="monospace" font-size="13">IF</text>
  <line x1="170" y1="210" x2="210" y2="210" stroke="#58a6ff" stroke-width="2" marker-end="url(#arr)"/>
  <rect x="210" y="180" width="110" height="60" rx="6" fill="none" stroke="#58a6ff" stroke-width="2"/>
  <text x="265" y="215" text-anchor="middle" fill="#58a6ff" font-family="monospace" font-size="13">ID</text>
  <line x1="320" y1="210" x2="360" y2="210" stroke="#58a6ff" stroke-width="2"/>
  <rect x="360" y="180" width="110" height="60" rx="6" fill="none" stroke="#3fb950" stroke-width="2"/>
  <text x="415" y="215" text-anchor="middle" fill="#3fb950" font-family="monospace" font-size="13">EX</text>
  <line x1="470" y1="210" x2="510" y2="210" stroke="#3fb950" stroke-width="2"/>
  <rect x="510" y="180" width="110" height="60" rx="6" fill="none" stroke="#3fb950" stroke-width="2"/>
  <text x="565" y="215" text-anchor="middle" fill="#3fb950" font-family="monospace" font-size="13">MEM</text>
  <line x1="620" y1="210" x2="660" y2="210" stroke="#3fb950" stroke-width="2"/>
  <rect x="660" y="180" width="80" height="60" rx="6" fill="none" stroke="#e3b341" stroke-width="2"/>
  <text x="700" y="215" text-anchor="middle" fill="#e3b341" font-family="monospace" font-size="13">WB</text>
  <!-- Hazard arrow -->
  <path d="M415 240 Q415 290 265 290 Q265 240 265 240" fill="none" stroke="#f85149" stroke-width="1.5" stroke-dasharray="5,3"/>
  <text x="340" y="310" text-anchor="middle" fill="#f85149" font-family="monospace" font-size="11">data hazard</text>
  <!-- Title -->
  <text x="400" y="100" text-anchor="middle" fill="#ffffff" font-family="monospace" font-size="20" font-weight="bold">Basic Processor Pipeline</text>
  <text x="400" y="130" text-anchor="middle" fill="#8b949e" font-family="monospace" font-size="13">MIPS · Verilog · 5-Stage Architecture</text>
  <!-- Register file box -->
  <rect x="240" y="360" width="320" height="50" rx="4" fill="#161b22" stroke="#30363d" stroke-width="1"/>
  <text x="400" y="390" text-anchor="middle" fill="#8b949e" font-family="monospace" font-size="12">Register File  |  ALU  |  Data Memory</text>
</svg>
