<svg xmlns="http://www.w3.org/2000/svg" viewBox="0 0 800 500" width="800" height="500">
  <defs><linearGradient id="bg" x1="0%" y1="0%" x2="100%" y2="100%"><stop offset="0%" style="stop-color:#0d1117"/><stop offset="100%" style="stop-color:#1a1a2e"/></linearGradient></defs>
  <rect width="800" height="500" fill="url(#bg)"/>
  <!-- PDF document -->
  <rect x="70" y="130" width="200" height="280" rx="4" fill="#f0f6fc" stroke="#30363d" stroke-width="1.5"/>
  <rect x="70" y="130" width="200" height="32" rx="4" fill="#f85149"/>
  <text x="170" y="152" text-anchor="middle" fill="#ffffff" font-family="monospace" font-size="11" font-weight="bold">PDF</text>
  <!-- Dog-ear -->
  <polygon points="250,130 270,130 270,150" fill="#d0d7de"/>
  <!-- Content lines -->
  <rect x="85" y="175" width="170" height="6" rx="2" fill="#d0d7de"/>
  <rect x="85" y="188" width="155" height="5" rx="2" fill="#e6edf3"/>
  <rect x="85" y="199" width="165" height="5" rx="2" fill="#e6edf3"/>
  <rect x="85" y="210" width="140" height="5" rx="2" fill="#e6edf3"/>
  <rect x="85" y="228" width="170" height="6" rx="2" fill="#d0d7de"/>
  <rect x="85" y="240" width="160" height="5" rx="2" fill="#e6edf3"/>
  <rect x="85" y="251" width="150" height="5" rx="2" fill="#e6edf3"/>
  <rect x="85" y="262" width="168" height="5" rx="2" fill="#e6edf3"/>
  <rect x="85" y="280" width="170" height="6" rx="2" fill="#d0d7de"/>
  <rect x="85" y="292" width="155" height="5" rx="2" fill="#e6edf3"/>
  <rect x="85" y="303" width="162" height="5" rx="2" fill="#e6edf3"/>
  <!-- Arrow -->
  <line x1="285" y1="270" x2="335" y2="270" stroke="#58a6ff" stroke-width="2.5"/>
  <polygon points="335,263 350,270 335,277" fill="#58a6ff"/>
  <!-- NLP pipeline -->
  <rect x="350" y="150" width="120" height="50" rx="6" fill="#161b22" stroke="#58a6ff" stroke-width="1.5"/>
  <text x="410" y="172" text-anchor="middle" fill="#58a6ff" font-family="monospace" font-size="10">Text</text>
  <text x="410" y="187" text-anchor="middle" fill="#58a6ff" font-family="monospace" font-size="10">Extraction</text>
  <line x1="410" y1="200" x2="410" y2="230" stroke="#58a6ff" stroke-width="1.5"/>
  <polygon points="403,230 410,245 417,230" fill="#58a6ff"/>
  <rect x="350" y="245" width="120" height="50" rx="6" fill="#161b22" stroke="#bc8cff" stroke-width="1.5"/>
  <text x="410" y="267" text-anchor="middle" fill="#bc8cff" font-family="monospace" font-size="10">NLP</text>
  <text x="410" y="282" text-anchor="middle" fill="#bc8cff" font-family="monospace" font-size="10">Analysis</text>
  <line x1="410" y1="295" x2="410" y2="325" stroke="#bc8cff" stroke-width="1.5"/>
  <polygon points="403,325 410,340 417,325" fill="#bc8cff"/>
  <rect x="350" y="340" width="120" height="50" rx="6" fill="#161b22" stroke="#3fb950" stroke-width="1.5"/>
  <text x="410" y="362" text-anchor="middle" fill="#3fb950" font-family="monospace" font-size="10">Insights</text>
  <text x="410" y="377" text-anchor="middle" fill="#3fb950" font-family="monospace" font-size="10">Generated</text>
  <!-- Results panel -->
  <rect x="510" y="130" width="260" height="310" rx="6" fill="#161b22" stroke="#3fb950" stroke-width="2"/>
  <text x="640" y="155" text-anchor="middle" fill="#3fb950" font-family="monospace" font-size="12" font-weight="bold">StudySnap Results</text>
  <line x1="510" y1="165" x2="770" y2="165" stroke="#30363d" stroke-width="1"/>
  <!-- Summary section -->
  <text x="525" y="185" fill="#8b949e" font-family="monospace" font-size="9" font-weight="bold">SUMMARY</text>
  <rect x="525" y="192" width="230" height="40" rx="3" fill="#0d1117"/>
  <text x="640" y="207" text-anchor="middle" fill="#f0f6fc" font-family="monospace" font-size="8">This document explores machine</text>
  <text x="640" y="219" text-anchor="middle" fill="#f0f6fc" font-family="monospace" font-size="8">learning methods for classification...</text>
  <!-- Key terms -->
  <text x="525" y="252" fill="#8b949e" font-family="monospace" font-size="9" font-weight="bold">KEY TERMS</text>
  <rect x="525" y="258" width="68" height="18" rx="9" fill="#58a6ff22" stroke="#58a6ff" stroke-width="1"/><text x="559" y="271" text-anchor="middle" fill="#58a6ff" font-family="monospace" font-size="8">neural net</text>
  <rect x="600" y="258" width="55" height="18" rx="9" fill="#bc8cff22" stroke="#bc8cff" stroke-width="1"/><text x="627" y="271" text-anchor="middle" fill="#bc8cff" font-family="monospace" font-size="8">gradient</text>
  <rect x="662" y="258" width="85" height="18" rx="9" fill="#3fb95022" stroke="#3fb950" stroke-width="1"/><text x="704" y="271" text-anchor="middle" fill="#3fb950" font-family="monospace" font-size="8">backprop</text>
  <rect x="525" y="282" width="62" height="18" rx="9" fill="#e3b34122" stroke="#e3b341" stroke-width="1"/><text x="556" y="295" text-anchor="middle" fill="#e3b341" font-family="monospace" font-size="8">accuracy</text>
  <rect x="594" y="282" width="48" height="18" rx="9" fill="#f8516922" stroke="#f85169" stroke-width="1"/><text x="618" y="295" text-anchor="middle" fill="#f85169" font-family="monospace" font-size="8">loss fn</text>
  <!-- Word count / stats -->
  <line x1="510" y1="312" x2="770" y2="312" stroke="#30363d" stroke-width="1"/>
  <text x="525" y="330" fill="#8b949e" font-family="monospace" font-size="9" font-weight="bold">DOCUMENT STATS</text>
  <text x="525" y="348" fill="#8b949e" font-family="monospace" font-size="9">Words:  4,821</text>
  <text x="525" y="363" fill="#8b949e" font-family="monospace" font-size="9">Pages:  12</text>
  <text x="525" y="378" fill="#8b949e" font-family="monospace" font-size="9">Sentences: 234</text>
  <text x="650" y="348" fill="#8b949e" font-family="monospace" font-size="9">Readability: B+</text>
  <text x="650" y="363" fill="#8b949e" font-family="monospace" font-size="9">Lang: English</text>
  <text x="650" y="378" fill="#3fb950" font-family="monospace" font-size="9">✓ Analysis done</text>
  <!-- Flask badge -->
  <rect x="525" y="398" width="230" height="28" rx="4" fill="#21262d"/>
  <text x="640" y="417" text-anchor="middle" fill="#8b949e" font-family="monospace" font-size="9">Flask · REST API · pdfplumber · spaCy</text>
  <text x="400" y="65" text-anchor="middle" fill="#ffffff" font-family="monospace" font-size="19" font-weight="bold">StudySnap — PDF Document Analysis</text>
  <text x="400" y="92" text-anchor="middle" fill="#8b949e" font-family="monospace" font-size="13">Python · Flask · NLP · PDF Parsing</text>
</svg>
