<svg xmlns="http://www.w3.org/2000/svg" viewBox="0 0 800 500" width="800" height="500">
  <defs>
    <linearGradient id="bg26" x1="0%" y1="0%" x2="100%" y2="100%">
      <stop offset="0%" style="stop-color:#0d1117"/>
      <stop offset="100%" style="stop-color:#1a2332"/>
    </linearGradient>
  </defs>
  <rect width="800" height="500" fill="url(#bg26)"/>

  <!-- Title -->
  <text x="400" y="38" text-anchor="middle" font-family="monospace" font-size="18" font-weight="bold" fill="#58a6ff">Classic Puzzle Solver</text>
  <text x="400" y="60" text-anchor="middle" font-family="monospace" font-size="12" fill="#8b949e">Python · BFS / DFS / UCS · AI Search</text>

  <!-- ===== LEFT: 8-Puzzle (3x3 sliding tiles) ===== -->
  <rect x="25" y="75" width="360" height="390" rx="8" fill="#161b22" stroke="#58a6ff" stroke-width="1.5"/>
  <text x="205" y="98" text-anchor="middle" font-family="monospace" font-size="11" fill="#58a6ff">8-Puzzle State Space</text>

  <!-- Current State label -->
  <text x="80" y="120" text-anchor="middle" font-family="monospace" font-size="10" fill="#e3b341">Start State</text>

  <!-- 3x3 puzzle grid - Start -->
  <!-- Cell size 52x52, grid at x=34, y=125 -->
  <!-- Row 1: 7, 2, 4 -->
  <rect x="34" y="125" width="52" height="52" rx="3" fill="#2d333b" stroke="#30363d" stroke-width="2"/>
  <text x="60" y="157" text-anchor="middle" font-family="monospace" font-size="22" font-weight="bold" fill="#c9d1d9">7</text>
  <rect x="88" y="125" width="52" height="52" rx="3" fill="#2d333b" stroke="#30363d" stroke-width="2"/>
  <text x="114" y="157" text-anchor="middle" font-family="monospace" font-size="22" font-weight="bold" fill="#c9d1d9">2</text>
  <rect x="142" y="125" width="52" height="52" rx="3" fill="#2d333b" stroke="#30363d" stroke-width="2"/>
  <text x="168" y="157" text-anchor="middle" font-family="monospace" font-size="22" font-weight="bold" fill="#c9d1d9">4</text>
  <!-- Row 2: 5, _, 6 -->
  <rect x="34" y="179" width="52" height="52" rx="3" fill="#2d333b" stroke="#30363d" stroke-width="2"/>
  <text x="60" y="211" text-anchor="middle" font-family="monospace" font-size="22" font-weight="bold" fill="#c9d1d9">5</text>
  <rect x="88" y="179" width="52" height="52" rx="3" fill="#0d1117" stroke="#58a6ff" stroke-width="2" stroke-dasharray="4,3"/>
  <rect x="142" y="179" width="52" height="52" rx="3" fill="#2d333b" stroke="#30363d" stroke-width="2"/>
  <text x="168" y="211" text-anchor="middle" font-family="monospace" font-size="22" font-weight="bold" fill="#c9d1d9">6</text>
  <!-- Row 3: 8, 3, 1 -->
  <rect x="34" y="233" width="52" height="52" rx="3" fill="#2d333b" stroke="#30363d" stroke-width="2"/>
  <text x="60" y="265" text-anchor="middle" font-family="monospace" font-size="22" font-weight="bold" fill="#c9d1d9">8</text>
  <rect x="88" y="233" width="52" height="52" rx="3" fill="#2d333b" stroke="#30363d" stroke-width="2"/>
  <text x="114" y="265" text-anchor="middle" font-family="monospace" font-size="22" font-weight="bold" fill="#c9d1d9">3</text>
  <rect x="142" y="233" width="52" height="52" rx="3" fill="#2d333b" stroke="#30363d" stroke-width="2"/>
  <text x="168" y="265" text-anchor="middle" font-family="monospace" font-size="22" font-weight="bold" fill="#c9d1d9">1</text>

  <!-- Arrow from start to goal -->
  <line x1="220" y1="200" x2="260" y2="200" stroke="#3fb950" stroke-width="2.5"/>
  <polygon points="255,194 268,200 255,206" fill="#3fb950"/>
  <text x="244" y="218" text-anchor="middle" font-family="monospace" font-size="9" fill="#3fb950">BFS</text>

  <!-- Goal State label -->
  <text x="315" y="120" text-anchor="middle" font-family="monospace" font-size="10" fill="#3fb950">Goal State</text>

  <!-- 3x3 puzzle grid - Goal -->
  <!-- Row 1: 1, 2, 3 -->
  <rect x="268" y="125" width="52" height="52" rx="3" fill="#1a3a1a" stroke="#3fb950" stroke-width="2"/>
  <text x="294" y="157" text-anchor="middle" font-family="monospace" font-size="22" font-weight="bold" fill="#3fb950">1</text>
  <rect x="322" y="125" width="52" height="52" rx="3" fill="#1a3a1a" stroke="#3fb950" stroke-width="2"/>
  <text x="348" y="157" text-anchor="middle" font-family="monospace" font-size="22" font-weight="bold" fill="#3fb950">2</text>
  <!-- Row 2: 4, 5, 6 -->
  <rect x="268" y="179" width="52" height="52" rx="3" fill="#1a3a1a" stroke="#3fb950" stroke-width="2"/>
  <text x="294" y="211" text-anchor="middle" font-family="monospace" font-size="22" font-weight="bold" fill="#3fb950">4</text>
  <rect x="322" y="179" width="52" height="52" rx="3" fill="#1a3a1a" stroke="#3fb950" stroke-width="2"/>
  <text x="348" y="211" text-anchor="middle" font-family="monospace" font-size="22" font-weight="bold" fill="#3fb950">5</text>
  <!-- Row 3: 7, 8, _ -->
  <rect x="268" y="233" width="52" height="52" rx="3" fill="#1a3a1a" stroke="#3fb950" stroke-width="2"/>
  <text x="294" y="265" text-anchor="middle" font-family="monospace" font-size="22" font-weight="bold" fill="#3fb950">7</text>
  <rect x="322" y="233" width="52" height="52" rx="3" fill="#1a3a1a" stroke="#3fb950" stroke-width="2"/>
  <text x="348" y="265" text-anchor="middle" font-family="monospace" font-size="22" font-weight="bold" fill="#3fb950">8</text>

  <!-- Removed tile 3 from goal top row (keep it simple with 1,2 then 4,5 then 7,8 with blank) -->
  <!-- Blank cell top-right of goal -->
  <rect x="376" y="125" width="0" height="0"/><!-- placeholder, no extra col needed -->

  <!-- BFS queue panel below puzzle -->
  <rect x="34" y="300" width="336" height="70" rx="5" fill="#0d1117" stroke="#30363d" stroke-width="1"/>
  <text x="202" y="318" text-anchor="middle" font-family="monospace" font-size="10" fill="#e3b341">BFS Queue (FIFO)</text>
  <rect x="44" y="324" width="54" height="36" rx="3" fill="#2d333b" stroke="#58a6ff" stroke-width="1"/>
  <text x="71" y="336" text-anchor="middle" font-family="monospace" font-size="7" fill="#58a6ff">5,_,6</text>
  <text x="71" y="348" text-anchor="middle" font-family="monospace" font-size="7" fill="#8b949e">7,2,4</text>
  <text x="71" y="357" text-anchor="middle" font-family="monospace" font-size="7" fill="#8b949e">8,3,1</text>
  <rect x="104" y="324" width="54" height="36" rx="3" fill="#21262d" stroke="#30363d" stroke-width="1"/>
  <text x="131" y="336" text-anchor="middle" font-family="monospace" font-size="7" fill="#c9d1d9">7,2,4</text>
  <text x="131" y="348" text-anchor="middle" font-family="monospace" font-size="7" fill="#c9d1d9">_,5,6</text>
  <text x="131" y="357" text-anchor="middle" font-family="monospace" font-size="7" fill="#c9d1d9">8,3,1</text>
  <rect x="164" y="324" width="54" height="36" rx="3" fill="#21262d" stroke="#30363d" stroke-width="1"/>
  <text x="191" y="336" text-anchor="middle" font-family="monospace" font-size="7" fill="#c9d1d9">7,2,4</text>
  <text x="191" y="348" text-anchor="middle" font-family="monospace" font-size="7" fill="#c9d1d9">5,6,_</text>
  <text x="191" y="357" text-anchor="middle" font-family="monospace" font-size="7" fill="#c9d1d9">8,3,1</text>
  <text x="240" y="345" font-family="monospace" font-size="14" fill="#8b949e">. . .</text>

  <!-- Stats -->
  <rect x="34" y="380" width="155" height="70" rx="5" fill="#0d1117" stroke="#30363d" stroke-width="1"/>
  <text x="111" y="398" text-anchor="middle" font-family="monospace" font-size="10" fill="#58a6ff">BFS Stats</text>
  <text x="44" y="414" font-family="monospace" font-size="9" fill="#c9d1d9">Nodes explored: 1,847</text>
  <text x="44" y="428" font-family="monospace" font-size="9" fill="#c9d1d9">Solution depth: 26</text>
  <text x="44" y="442" font-family="monospace" font-size="9" fill="#3fb950">Optimal path found</text>

  <rect x="200" y="380" width="155" height="70" rx="5" fill="#0d1117" stroke="#30363d" stroke-width="1"/>
  <text x="277" y="398" text-anchor="middle" font-family="monospace" font-size="10" fill="#bc8cff">DFS Stats</text>
  <text x="210" y="414" font-family="monospace" font-size="9" fill="#c9d1d9">Nodes explored: 5,203</text>
  <text x="210" y="428" font-family="monospace" font-size="9" fill="#c9d1d9">Solution depth: 52</text>
  <text x="210" y="442" font-family="monospace" font-size="9" fill="#e3b341">Non-optimal path</text>

  <!-- ===== RIGHT: BFS Tree ===== -->
  <rect x="400" y="75" width="375" height="390" rx="8" fill="#161b22" stroke="#3fb950" stroke-width="1.5"/>
  <text x="587" y="98" text-anchor="middle" font-family="monospace" font-size="11" fill="#3fb950">BFS Search Tree</text>

  <!-- Root node -->
  <rect x="527" y="108" width="120" height="32" rx="4" fill="#1a3a58" stroke="#58a6ff" stroke-width="1.5"/>
  <text x="587" y="128" text-anchor="middle" font-family="monospace" font-size="9" fill="#58a6ff">Start [7,2,4|5,_,6|8,3,1]</text>

  <!-- Level 1 branches -->
  <line x1="587" y1="140" x2="490" y2="165" stroke="#30363d" stroke-width="1.2"/>
  <line x1="587" y1="140" x2="587" y2="165" stroke="#30363d" stroke-width="1.2"/>
  <line x1="587" y1="140" x2="680" y2="165" stroke="#30363d" stroke-width="1.2"/>

  <rect x="440" y="165" width="100" height="28" rx="3" fill="#21262d" stroke="#30363d" stroke-width="1"/>
  <text x="490" y="183" text-anchor="middle" font-family="monospace" font-size="8" fill="#c9d1d9">Move UP</text>

  <rect x="537" y="165" width="100" height="28" rx="3" fill="#21262d" stroke="#58a6ff" stroke-width="1.5"/>
  <text x="587" y="183" text-anchor="middle" font-family="monospace" font-size="8" fill="#58a6ff">Move LEFT ✓</text>

  <rect x="634" y="165" width="100" height="28" rx="3" fill="#21262d" stroke="#30363d" stroke-width="1"/>
  <text x="684" y="183" text-anchor="middle" font-family="monospace" font-size="8" fill="#c9d1d9">Move RIGHT</text>

  <!-- Level 2 -->
  <line x1="587" y1="193" x2="530" y2="218" stroke="#58a6ff" stroke-width="1.2" stroke-dasharray="3,2"/>
  <line x1="587" y1="193" x2="640" y2="218" stroke="#58a6ff" stroke-width="1.2" stroke-dasharray="3,2"/>

  <rect x="480" y="218" width="100" height="28" rx="3" fill="#21262d" stroke="#30363d" stroke-width="1"/>
  <text x="530" y="236" text-anchor="middle" font-family="monospace" font-size="8" fill="#c9d1d9">State d=2</text>

  <rect x="590" y="218" width="100" height="28" rx="3" fill="#21262d" stroke="#58a6ff" stroke-width="1"/>
  <text x="640" y="236" text-anchor="middle" font-family="monospace" font-size="8" fill="#58a6ff">State d=2 ✓</text>

  <!-- Level 3 partial -->
  <line x1="640" y1="246" x2="587" y2="270" stroke="#58a6ff" stroke-width="1.2" stroke-dasharray="3,2"/>
  <line x1="640" y1="246" x2="693" y2="270" stroke="#30363d" stroke-width="1"/>

  <rect x="537" y="270" width="100" height="28" rx="3" fill="#21262d" stroke="#58a6ff" stroke-width="1.5"/>
  <text x="587" y="288" text-anchor="middle" font-family="monospace" font-size="8" fill="#58a6ff">State d=3 ✓</text>

  <rect x="643" y="270" width="100" height="28" rx="3" fill="#21262d" stroke="#30363d" stroke-width="1"/>
  <text x="693" y="288" text-anchor="middle" font-family="monospace" font-size="8" fill="#8b949e">Pruned</text>

  <!-- Dots -->
  <text x="587" y="320" text-anchor="middle" font-family="monospace" font-size="14" fill="#8b949e">. . .</text>

  <!-- Goal found -->
  <line x1="587" y1="328" x2="587" y2="348" stroke="#3fb950" stroke-width="1.5" stroke-dasharray="3,2"/>
  <rect x="522" y="348" width="130" height="32" rx="4" fill="#0d3a0d" stroke="#3fb950" stroke-width="2"/>
  <text x="587" y="367" text-anchor="middle" font-family="monospace" font-size="9" fill="#3fb950">GOAL REACHED! d=26</text>

  <!-- Path highlight -->
  <rect x="415" y="395" width="345" height="60" rx="5" fill="#0d1117" stroke="#3fb950" stroke-width="1"/>
  <text x="587" y="413" text-anchor="middle" font-family="monospace" font-size="10" fill="#3fb950">Optimal Solution Path</text>
  <text x="587" y="430" text-anchor="middle" font-family="monospace" font-size="9" fill="#c9d1d9">Start → L → U → R → D → L → U → ... → Goal</text>
  <text x="587" y="447" text-anchor="middle" font-family="monospace" font-size="9" fill="#e3b341">26 moves · BFS guarantees optimal solution</text>
</svg>
