<svg xmlns="http://www.w3.org/2000/svg" viewBox="0 0 800 500" width="800" height="500">
  <defs><linearGradient id="bg" x1="0%" y1="0%" x2="100%" y2="100%"><stop offset="0%" style="stop-color:#0d1117"/><stop offset="100%" style="stop-color:#1a2332"/></linearGradient></defs>
  <rect width="800" height="500" fill="url(#bg)"/>
  <!-- Email cards -->
  <rect x="80" y="130" width="300" height="60" rx="6" fill="#161b22" stroke="#f8514966" stroke-width="2"/>
  <text x="100" y="155" fill="#f85149" font-family="monospace" font-size="11">SPAM</text>
  <text x="100" y="175" fill="#8b949e" font-family="monospace" font-size="10">FREE MONEY!!! Click NOW!!!</text>
  <rect x="80" y="205" width="300" height="60" rx="6" fill="#161b22" stroke="#f8514966" stroke-width="2"/>
  <text x="100" y="230" fill="#f85149" font-family="monospace" font-size="11">SPAM</text>
  <text x="100" y="250" fill="#8b949e" font-family="monospace" font-size="10">You have WON $1,000,000!!!</text>
  <rect x="80" y="280" width="300" height="60" rx="6" fill="#161b22" stroke="#3fb95066" stroke-width="2"/>
  <text x="100" y="305" fill="#3fb950" font-family="monospace" font-size="11">HAM</text>
  <text x="100" y="325" fill="#8b949e" font-family="monospace" font-size="10">Meeting at 3pm in conference room B</text>
  <rect x="80" y="355" width="300" height="60" rx="6" fill="#161b22" stroke="#3fb95066" stroke-width="2"/>
  <text x="100" y="380" fill="#3fb950" font-family="monospace" font-size="11">HAM</text>
  <text x="100" y="400" fill="#8b949e" font-family="monospace" font-size="10">Please review the attached report</text>
  <!-- Arrow -->
  <line x1="400" y1="265" x2="460" y2="265" stroke="#58a6ff" stroke-width="2.5"/>
  <polygon points="460,258 475,265 460,272" fill="#58a6ff"/>
  <!-- Classifier box -->
  <rect x="475" y="210" width="160" height="110" rx="8" fill="#161b22" stroke="#58a6ff" stroke-width="2"/>
  <text x="555" y="250" text-anchor="middle" fill="#58a6ff" font-family="monospace" font-size="12">Naive Bayes</text>
  <text x="555" y="268" text-anchor="middle" fill="#58a6ff" font-family="monospace" font-size="12">Classifier</text>
  <text x="555" y="303" text-anchor="middle" fill="#8b949e" font-family="monospace" font-size="10">P(spam|words)</text>
  <!-- Output -->
  <line x1="635" y1="240" x2="680" y2="200" stroke="#f85149" stroke-width="1.5"/>
  <text x="690" y="198" fill="#f85149" font-family="monospace" font-size="11">SPAM</text>
  <line x1="635" y1="290" x2="680" y2="330" stroke="#3fb950" stroke-width="1.5"/>
  <text x="690" y="334" fill="#3fb950" font-family="monospace" font-size="11">HAM</text>
  <text x="400" y="65" text-anchor="middle" fill="#ffffff" font-family="monospace" font-size="20" font-weight="bold">Naive Bayes Spam Filter</text>
  <text x="400" y="92" text-anchor="middle" fill="#8b949e" font-family="monospace" font-size="13">Python · NLP · Probabilistic Classification</text>
</svg>
