<svg xmlns="http://www.w3.org/2000/svg" viewBox="0 0 800 500" width="800" height="500">
  <defs><linearGradient id="bg" x1="0%" y1="0%" x2="100%" y2="100%"><stop offset="0%" style="stop-color:#000000"/><stop offset="100%" style="stop-color:#00001a"/></linearGradient></defs>
  <rect width="800" height="500" fill="url(#bg)"/>
  <!-- Pac-Man maze walls -->
  <rect x="80" y="120" width="460" height="320" rx="4" fill="none" stroke="#2121de" stroke-width="3"/>
  <!-- Inner walls -->
  <rect x="120" y="160" width="80" height="40" rx="2" fill="#2121de"/>
  <rect x="240" y="160" width="80" height="40" rx="2" fill="#2121de"/>
  <rect x="360" y="160" width="80" height="40" rx="2" fill="#2121de"/>
  <rect x="120" y="240" width="80" height="40" rx="2" fill="#2121de"/>
  <rect x="360" y="240" width="80" height="40" rx="2" fill="#2121de"/>
  <rect x="120" y="320" width="80" height="40" rx="2" fill="#2121de"/>
  <rect x="240" y="320" width="80" height="40" rx="2" fill="#2121de"/>
  <rect x="360" y="320" width="80" height="40" rx="2" fill="#2121de"/>
  <!-- Ghost house -->
  <rect x="230" y="238" width="100" height="44" rx="4" fill="#21262d" stroke="#ff7b72" stroke-width="1.5"/>
  <text x="280" y="265" text-anchor="middle" fill="#ff7b72" font-family="monospace" font-size="10">GHOST</text>
  <!-- Dots -->
  <circle cx="105" cy="180" r="3" fill="#ffb8ae"/><circle cx="145" cy="145" r="3" fill="#ffb8ae"/><circle cx="225" cy="145" r="3" fill="#ffb8ae"/>
  <circle cx="310" cy="145" r="3" fill="#ffb8ae"/><circle cx="395" cy="145" r="3" fill="#ffb8ae"/><circle cx="465" cy="180" r="3" fill="#ffb8ae"/>
  <circle cx="105" cy="280" r="3" fill="#ffb8ae"/><circle cx="465" cy="280" r="3" fill="#ffb8ae"/>
  <circle cx="105" cy="390" r="3" fill="#ffb8ae"/><circle cx="200" cy="410" r="3" fill="#ffb8ae"/><circle cx="310" cy="410" r="3" fill="#ffb8ae"/><circle cx="420" cy="410" r="3" fill="#ffb8ae"/>
  <!-- Power pellets -->
  <circle cx="105" cy="145" r="7" fill="#ffb8ae"/>
  <circle cx="465" cy="145" r="7" fill="#ffb8ae"/>
  <circle cx="105" cy="410" r="7" fill="#ffb8ae"/>
  <circle cx="465" cy="410" r="7" fill="#ffb8ae"/>
  <!-- Pac-Man -->
  <path d="M310 290 L350 275 A40 40 0 1 1 350 305 Z" fill="#ffff00"/>
  <!-- Ghosts -->
  <ellipse cx="195" cy="290" rx="16" ry="18" fill="#ff7b72"/>
  <rect x="179" y="290" width="32" height="10" fill="#ff7b72"/>
  <circle cx="189" cy="284" r="5" fill="white"/><circle cx="201" cy="284" r="5" fill="white"/>
  <circle cx="190" cy="285" r="2" fill="#2121de"/><circle cx="202" cy="285" r="2" fill="#2121de"/>
  <ellipse cx="395" cy="200" rx="16" ry="18" fill="#ffb8ff"/>
  <rect x="379" y="200" width="32" height="10" fill="#ffb8ff"/>
  <circle cx="389" cy="194" r="5" fill="white"/><circle cx="401" cy="194" r="5" fill="white"/>
  <circle cx="390" cy="195" r="2" fill="#2121de"/><circle cx="402" cy="195" r="2" fill="#2121de"/>
  <!-- Q-learning info -->
  <rect x="570" y="130" width="190" height="200" rx="6" fill="#161b22" stroke="#3fb950" stroke-width="1.5"/>
  <text x="665" y="155" text-anchor="middle" fill="#3fb950" font-family="monospace" font-size="11">Q-Learning</text>
  <text x="665" y="175" text-anchor="middle" fill="#8b949e" font-family="monospace" font-size="9">Q(s,a) ← Q(s,a) +</text>
  <text x="665" y="190" text-anchor="middle" fill="#8b949e" font-family="monospace" font-size="9">α[r + γ·max Q(s')]</text>
  <line x1="580" y1="205" x2="750" y2="205" stroke="#30363d" stroke-width="1"/>
  <text x="665" y="222" text-anchor="middle" fill="#8b949e" font-family="monospace" font-size="9">State: grid position</text>
  <text x="665" y="238" text-anchor="middle" fill="#8b949e" font-family="monospace" font-size="9">Actions: U D L R</text>
  <text x="665" y="254" text-anchor="middle" fill="#58a6ff" font-family="monospace" font-size="9">+10 dot  +50 pellet</text>
  <text x="665" y="270" text-anchor="middle" fill="#f85149" font-family="monospace" font-size="9">−500 ghost collision</text>
  <text x="665" y="290" text-anchor="middle" fill="#e3b341" font-family="monospace" font-size="9">BFS ghost pathing</text>
  <rect x="570" y="350" width="190" height="60" rx="4" fill="#161b22" stroke="#30363d" stroke-width="1"/>
  <text x="665" y="373" text-anchor="middle" fill="#8b949e" font-family="monospace" font-size="9">Episode 1:  score  120</text>
  <text x="665" y="390" text-anchor="middle" fill="#8b949e" font-family="monospace" font-size="9">Episode 500: score 4820</text>
  <text x="400" y="65" text-anchor="middle" fill="#ffff00" font-family="monospace" font-size="20" font-weight="bold">Autonomous Pac-Man</text>
  <text x="400" y="92" text-anchor="middle" fill="#8b949e" font-family="monospace" font-size="13">Python · Q-Learning · BFS · Pygame</text>
</svg>
