<svg id="Layer_1" enable-background="new 0 0 512 512" height="512" viewBox="0 0 512 512" width="512" xmlns="http://www.w3.org/2000/svg">
  <g>
    <!-- Base platform (similar to original) -->
    <path d="m80 452c0-22.091 17.909-40 40-40h-60c-22.091 0-40 17.909-40 40 0 22.091 17.909 40 40 40h60c-22.091 0-40-17.909-40-40z" fill="#6f6f6f"/>
    <path d="m452 357c-11.046 0-20-8.954-20-20v-28c0-11.046 8.954-20 20-20s20 8.954 20 20v28c0 11.046-8.954 20-20 20zm-372-20v-147c0-44.112 35.888-80 80-80h37c11.046 0 20-8.954 20-20s-8.954-20-20-20h-37c-66.168 0-120 53.832-120 120v147c0 11.046 8.954 20 20 20s20-8.954 20-20zm432 115c0-33.084-26.916-60-60-60h-392c-33.084 0-60 26.916-60 60s26.916 60 60 60h392c33.084 0 60-26.916 60-60zm-60-20c11.028 0 20 8.972 20 20s-8.972 20-20 20h-392c-11.028 0-20-8.972-20-20s8.972-20 20-20z" fill="#515151"/>
    
    <!-- AI-themed main graphic (replacing the chat bubble) -->
    <path d="M256 80c-44.1 0-80 35.9-80 80s35.9 80 80 80 80-35.9 80-80-35.9-80-80-80zm0 120c-22.1 0-40-17.9-40-40s17.9-40 40-40 40 17.9 40 40-17.9 40-40 40z" fill="#4CAF50"/>
    
    <!-- Neural network nodes -->
    <circle cx="256" cy="160" r="15" fill="#2196F3"/>
    <circle cx="216" cy="200" r="12" fill="#FFC107"/>
    <circle cx="296" cy="200" r="12" fill="#FFC107"/>
    <circle cx="186" cy="240" r="10" fill="#9C27B0"/>
    <circle cx="246" cy="240" r="10" fill="#9C27B0"/>
    <circle cx="306" cy="240" r="10" fill="#9C27B0"/>
    
    <!-- Connecting lines (neural connections) -->
    <path d="M256 175v25" stroke="#607D8B" stroke-width="3" fill="none"/>
    <path d="M216 200l-30 40" stroke="#607D8B" stroke-width="2" fill="none"/>
    <path d="M216 200l30 40" stroke="#607D8B" stroke-width="2" fill="none"/>
    <path d="M296 200l30 40" stroke="#607D8B" stroke-width="2" fill="none"/>
    <path d="M296 200l-30 40" stroke="#607D8B" stroke-width="2" fill="none"/>
    <path d="M256 200v40" stroke="#607D8B" stroke-width="2" fill="none"/>
    
    <!-- AI chip base -->
    <rect x="206" y="280" width="100" height="60" rx="5" fill="#607D8B"/>
    <rect x="216" y="290" width="80" height="40" fill="#263238"/>
    
    <!-- Circuit lines on chip -->
    <path d="M226 300h60v5h-60zM226 315h40v5h-40zM226 325h50v5h-50z" fill="#4CAF50"/>
  </g>
</svg>